<svg width="277" height="370" viewBox="0 0 277 370" fill="none" xmlns="http://www.w3.org/2000/svg">
<g clip-path="url(#clip0_16_296)">
<path d="M6.48425e-05 369.202C-0.000267983 369.306 0.021223 369.41 0.0633019 369.506C0.105381 369.603 0.167228 369.691 0.245312 369.765C0.323396 369.839 0.416169 369.898 0.51837 369.939C0.620571 369.979 0.730196 370 0.840954 370H276.154C276.378 370 276.594 369.916 276.752 369.766C276.911 369.616 277 369.413 277 369.202C277 368.99 276.911 368.787 276.752 368.637C276.594 368.487 276.378 368.403 276.154 368.403H0.845987C0.735226 368.403 0.625468 368.423 0.523012 368.463C0.420556 368.503 0.327399 368.561 0.248848 368.635C0.170296 368.709 0.107898 368.796 0.0652109 368.893C0.0225234 368.989 0.000389225 369.092 6.48425e-05 369.197V369.202Z" fill="#CCCCCC"/>
<path opacity="0.5" d="M110.021 259.864C113.02 259.291 116.092 259.134 119.14 259.397C119.422 259.395 119.692 259.288 119.891 259.1C120.091 258.912 120.204 258.657 120.206 258.391C120.2 258.125 120.086 257.873 119.887 257.685C119.688 257.497 119.421 257.39 119.14 257.384C115.9 257.119 112.638 257.301 109.454 257.923C109.182 257.994 108.95 258.165 108.811 258.397C108.671 258.629 108.635 258.904 108.71 259.161C108.785 259.418 108.966 259.637 109.211 259.768C109.457 259.9 109.748 259.935 110.021 259.864Z" fill="#CCCCCC"/>
<path d="M36.8198 242.359C30.956 234.998 27.5669 226.767 27.4559 217.383C27.267 216.878 27.2983 216.322 27.5431 215.838C27.7878 215.354 28.2259 214.981 28.7614 214.802L48.748 208.128C49.2839 207.95 49.8728 207.979 50.3855 208.21C50.8983 208.441 51.2931 208.855 51.4832 209.36L60.8471 234.336C61.036 234.842 61.0047 235.397 60.7599 235.881C60.5152 236.365 60.0771 236.738 59.5416 236.917L39.555 243.591C39.0191 243.769 38.4302 243.74 37.9174 243.509C37.4046 243.278 37.0099 242.864 36.8198 242.359Z" fill="#F2F2F2"/>
<path opacity="0.2" d="M41.3321 241.914C40.7962 242.092 40.2073 242.063 39.6946 241.832C39.1818 241.601 38.7871 241.187 38.5969 240.682C32.7332 233.321 29.3441 225.09 29.233 215.706C29.1107 215.374 29.0837 215.016 29.1547 214.671L28.7614 214.802C28.2259 214.981 27.7878 215.354 27.5431 215.838C27.2983 216.322 27.2669 216.878 27.4558 217.383C27.5669 226.767 30.956 234.998 36.8198 242.359C37.0099 242.864 37.4047 243.278 37.9174 243.509C38.4302 243.74 39.0191 243.769 39.555 243.591L59.5416 236.917C59.8962 236.797 60.211 236.591 60.454 236.32C60.697 236.049 60.8596 235.721 60.9254 235.371L41.3321 241.914Z" fill="black"/>
<path d="M50.6957 223.22L37.3154 227.727C37.1025 227.799 36.8681 227.788 36.6638 227.697C36.4595 227.605 36.302 227.441 36.226 227.24C36.15 227.039 36.1617 226.818 36.2585 226.625C36.3553 226.433 36.5293 226.284 36.7423 226.212L50.1225 221.705C50.3353 221.634 50.5693 221.645 50.7731 221.737C50.9769 221.828 51.134 221.992 51.2098 222.193C51.2857 222.393 51.2742 222.614 51.1778 222.807C51.0814 222.999 50.9081 223.148 50.6957 223.22Z" fill="white"/>
<path d="M38.6875 222.581L35.7439 223.572C35.6385 223.608 35.5267 223.624 35.4148 223.62C35.3029 223.615 35.193 223.589 35.0916 223.544C34.9902 223.499 34.8992 223.436 34.8237 223.358C34.7482 223.28 34.6898 223.188 34.6518 223.089C34.6138 222.989 34.597 222.884 34.6023 222.778C34.6075 222.673 34.6348 222.569 34.6825 222.473C34.7303 222.378 34.7975 222.292 34.8804 222.221C34.9633 222.15 35.0602 222.095 35.1657 222.059L35.1707 222.057L38.1144 221.066C38.3271 220.995 38.561 221.006 38.7647 221.098C38.9685 221.189 39.1255 221.353 39.2013 221.554C39.2772 221.754 39.2657 221.975 39.1694 222.167C39.0731 222.36 38.8998 222.509 38.6875 222.581Z" fill="white"/>
<path d="M53.2153 229.882L39.8351 234.389C39.6223 234.46 39.3885 234.449 39.1847 234.357C38.981 234.266 38.824 234.102 38.7482 233.901C38.6723 233.701 38.6838 233.48 38.7801 233.287C38.8764 233.095 39.0497 232.946 39.2619 232.874L52.6422 228.366C52.8549 228.294 53.0891 228.305 53.2934 228.396C53.4978 228.487 53.6556 228.65 53.7322 228.851C53.8089 229.051 53.798 229.272 53.702 229.465C53.6061 229.658 53.4329 229.808 53.2204 229.88L53.2153 229.882Z" fill="white"/>
<path d="M51.9555 226.551L38.5752 231.058C38.3624 231.13 38.128 231.12 37.9236 231.028C37.7191 230.937 37.5615 230.773 37.4852 230.572C37.4089 230.371 37.4203 230.15 37.5169 229.957C37.6135 229.764 37.7873 229.616 38.0001 229.544L38.0021 229.543L51.3824 225.036C51.5951 224.965 51.8291 224.976 52.0329 225.067C52.2367 225.159 52.3938 225.323 52.4697 225.524C52.5455 225.724 52.534 225.945 52.4376 226.138C52.3412 226.33 52.1679 226.479 51.9555 226.551Z" fill="white"/>
<path d="M38.2226 215.06C40.1855 215.06 41.7769 213.559 41.7769 211.706C41.7769 209.854 40.1855 208.352 38.2226 208.352C36.2596 208.352 34.6683 209.854 34.6683 211.706C34.6683 213.559 36.2596 215.06 38.2226 215.06Z" fill="#CCCCCC"/>
<path d="M168.309 66.826C168.366 71.7367 170.023 81.9607 168.835 86.7708L168.644 86.3683C167.657 87.1066 166.608 87.7684 165.509 88.3473C164.716 86.5265 163.529 84.8815 162.026 83.5171C162.224 85.7745 161.941 88.0464 161.194 90.1989C156.751 91.7084 148.953 86.952 144.119 86.8513C136.342 86.6836 128.764 84.8589 121.336 82.9268C118.699 82.2425 115.798 81.3502 114.604 79.284C113.41 77.2177 115.547 74.9874 115.407 72.6558C114.411 56.0481 122.793 53.2643 130.769 48.8267C132.524 47.8501 133.385 45.7474 135.368 44.929C138.119 43.7952 141.396 44.3386 144.389 44.9088C143.646 44.6777 142.978 44.27 142.45 43.7248C141.922 43.1796 141.552 42.5154 141.375 41.796C141.25 41.0909 141.334 40.367 141.618 39.7041C141.901 39.0412 142.373 38.465 142.982 38.0392C144.631 36.8383 147.09 36.6907 149.195 37.2006C151.227 37.8005 153.15 38.692 154.896 39.8438C156.081 40.4573 157.14 41.2662 158.023 42.2321C158.44 42.6892 158.698 43.2553 158.764 43.8547C158.83 44.4541 158.701 45.0583 158.393 45.5864C158.014 46.0391 157.531 46.4052 156.981 46.6572C156.43 46.9093 155.827 47.0409 155.215 47.0422C154.273 47.0681 153.331 46.9756 152.415 46.7671C156.616 47.7452 160.402 49.9073 163.27 52.9659C166.831 56.8771 168.245 61.9153 168.309 66.826Z" fill="#2F2E41"/>
<path d="M44.052 114.152C44.7748 115.6 46.0677 116.724 47.6557 117.286C49.2436 117.848 51.0013 117.803 52.5546 117.161C52.8682 117.026 53.1693 116.866 53.455 116.684L71.7589 129.375L81.8505 122.876L54.7847 108.048C53.8926 106.989 52.654 106.238 51.2622 105.913C49.8703 105.588 48.4036 105.706 47.0908 106.251C46.3469 106.567 45.6764 107.019 45.1175 107.58C44.5586 108.141 44.1222 108.8 43.8333 109.52C43.5444 110.24 43.4087 111.007 43.4338 111.777C43.4589 112.547 43.6444 113.304 43.9797 114.006C44.0031 114.055 44.0272 114.104 44.052 114.152Z" fill="#FFB6B6"/>
<path d="M232.706 102.634C231.023 102.832 229.489 103.642 228.429 104.891C227.369 106.141 226.867 107.731 227.031 109.324C227.07 109.648 227.137 109.967 227.231 110.28L208.757 122.749L212.162 133.822L235.514 114.159C236.858 113.689 238 112.811 238.76 111.664C239.521 110.517 239.857 109.164 239.718 107.818C239.63 107.052 239.384 106.31 238.993 105.634C238.602 104.958 238.074 104.362 237.438 103.879C236.803 103.396 236.073 103.035 235.29 102.818C234.507 102.602 233.687 102.532 232.876 102.615C232.819 102.62 232.763 102.627 232.706 102.634Z" fill="#FFB6B6"/>
<path d="M98.736 358.176L92.7862 358.129L90.1531 335.967L98.9337 336.037L98.736 358.176Z" fill="#FFB6B6"/>
<path d="M79.6792 367.104C79.6739 367.77 79.9486 368.41 80.4429 368.885C80.9373 369.36 81.611 369.63 82.3163 369.637L94.145 369.73L96.2158 365.768L96.9764 369.75L101.44 369.788L100.313 355.588L98.7598 355.49L92.426 355.078L90.3826 354.949L90.3468 358.967L80.8448 365.049C80.4888 365.277 80.1968 365.583 79.9938 365.941C79.7907 366.299 79.6828 366.698 79.6792 367.104Z" fill="#2F2E41"/>
<path d="M177.161 333.303L172.303 336.544L156.446 320.011L163.615 315.226L177.161 333.303Z" fill="#FFB6B6"/>
<path d="M167.223 351.056C167.631 351.599 168.25 351.967 168.945 352.08C169.64 352.192 170.354 352.04 170.931 351.657L180.588 345.21L179.816 340.853L182.898 343.665L186.544 341.235L176.838 330.332L175.517 331.109L170.122 334.267L168.384 335.289L170.842 338.57L166.896 348.745C166.749 349.127 166.701 349.536 166.758 349.938C166.815 350.341 166.975 350.724 167.223 351.056Z" fill="#2F2E41"/>
<path d="M103.198 178.5L120.48 140.626H160.285L148.804 180.152L103.198 178.5Z" fill="#FFB6B6"/>
<path d="M66.6585 358.346C66.3281 358.36 66.001 358.278 65.7215 358.111C65.442 357.945 65.2237 357.7 65.0961 357.412C64.9685 357.124 64.9378 356.806 65.0081 356.501C65.0785 356.196 65.2465 355.919 65.4893 355.707L65.5999 355.293C65.5853 355.259 65.5707 355.226 65.5559 355.193C65.2231 354.451 64.6653 353.818 63.9527 353.375C63.2401 352.931 62.4044 352.696 61.5506 352.699C60.6968 352.702 59.8629 352.943 59.1538 353.391C58.4447 353.84 57.8919 354.477 57.5649 355.221C56.2579 358.192 54.5939 361.167 54.1842 364.309C54.0038 365.697 54.0799 367.104 54.4092 368.468C51.3395 362.149 49.7455 355.28 49.7352 348.328C49.7346 346.584 49.8373 344.841 50.0428 343.107C50.2127 341.686 50.4484 340.275 50.7499 338.874C52.3953 331.272 55.9278 324.147 61.0575 318.084C63.5402 316.805 65.5481 314.839 66.8104 312.451C67.2677 311.592 67.591 310.676 67.77 309.73C67.4899 309.764 66.714 305.739 66.9253 305.492C66.5349 304.933 65.8364 304.655 65.4101 304.11C63.2901 301.397 60.3693 301.871 58.8445 305.557C55.5871 307.108 55.5556 309.681 57.5543 312.156C58.8258 313.731 59.0005 315.861 60.1163 317.546C60.0015 317.685 59.8821 317.819 59.7673 317.958C57.669 320.504 55.8403 323.239 54.3072 326.122C54.68 322.892 54.235 319.625 53.0089 316.589C51.7662 313.76 49.4369 311.377 47.3857 308.931C46.8431 308.274 46.1064 307.783 45.2686 307.521C44.4307 307.259 43.5294 307.238 42.6785 307.459C41.8276 307.681 41.0654 308.135 40.4881 308.765C39.9109 309.395 39.5446 310.173 39.4354 310.999C39.4312 311.035 39.4271 311.072 39.4231 311.108C39.7278 311.27 40.0261 311.442 40.3178 311.624C40.6844 311.855 40.9685 312.185 41.1328 312.572C41.2971 312.958 41.334 313.382 41.2386 313.788C41.1432 314.194 40.9201 314.564 40.5983 314.848C40.2766 315.133 39.8714 315.319 39.4356 315.382L39.391 315.389C39.4995 316.425 39.6914 317.452 39.9649 318.461C37.3335 328.065 43.0146 331.563 51.1264 331.72C51.3055 331.806 51.48 331.893 51.6591 331.975C50.1188 336.095 49.1526 340.386 48.7849 344.74C48.5767 347.31 48.5889 349.89 48.8216 352.458L48.8078 352.367C48.2201 349.512 46.6064 346.936 44.2394 345.074C40.7238 342.349 35.7569 341.345 31.9641 339.154C31.5611 338.91 31.0924 338.78 30.6134 338.779C30.1344 338.777 29.665 338.906 29.2607 339.148C28.8563 339.39 28.5339 339.737 28.3313 340.146C28.1288 340.556 28.0546 341.012 28.1175 341.46L28.133 341.556C28.6984 341.773 29.2489 342.023 29.7813 342.305C30.086 342.468 30.3842 342.64 30.676 342.822C31.0426 343.053 31.3266 343.383 31.4909 343.769C31.6552 344.155 31.6921 344.579 31.5967 344.986C31.5014 345.392 31.2782 345.761 30.9565 346.046C30.6348 346.33 30.2295 346.516 29.7938 346.58L29.7491 346.586C29.717 346.591 29.6894 346.595 29.6573 346.599C30.6234 348.776 31.9792 350.78 33.6656 352.523C35.3109 360.906 42.3778 361.702 49.9373 359.26H49.9418C50.7712 362.662 51.9729 365.973 53.5276 369.14H66.3374C66.3834 369.005 66.4247 368.867 66.466 368.732C65.2803 368.803 64.09 368.736 62.9215 368.533C63.8719 367.433 64.8223 366.323 65.7728 365.223C65.794 365.202 65.8139 365.18 65.8325 365.158C66.3145 364.594 66.8012 364.035 67.2833 363.472L67.2836 363.471C67.3093 361.745 67.0989 360.022 66.6585 358.346Z" fill="#F2F2F2"/>
<path d="M205.273 358.346C205.603 358.36 205.93 358.278 206.21 358.111C206.489 357.945 206.707 357.7 206.835 357.412C206.963 357.124 206.993 356.806 206.923 356.501C206.853 356.196 206.685 355.919 206.442 355.707L206.331 355.293C206.346 355.259 206.36 355.226 206.375 355.193C206.708 354.451 207.266 353.818 207.978 353.375C208.691 352.931 209.527 352.696 210.38 352.699C211.234 352.702 212.068 352.943 212.777 353.391C213.486 353.84 214.039 354.477 214.366 355.221C215.673 358.192 217.337 361.167 217.747 364.309C217.927 365.697 217.851 367.104 217.522 368.468C220.592 362.149 222.186 355.28 222.196 348.328C222.196 346.584 222.094 344.841 221.888 343.107C221.718 341.686 221.483 340.275 221.181 338.874C219.536 331.272 216.003 324.147 210.874 318.084C208.391 316.805 206.383 314.839 205.121 312.451C204.663 311.592 204.34 310.676 204.161 309.73C204.441 309.764 205.217 305.739 205.006 305.492C205.396 304.933 206.095 304.655 206.521 304.11C208.641 301.397 211.562 301.871 213.087 305.557C216.344 307.108 216.375 309.681 214.377 312.156C213.105 313.731 212.931 315.861 211.815 317.546C211.93 317.685 212.049 317.819 212.164 317.958C214.262 320.504 216.091 323.239 217.624 326.122C217.251 322.892 217.696 319.625 218.922 316.589C220.165 313.76 222.494 311.377 224.545 308.931C225.088 308.274 225.825 307.783 226.662 307.521C227.5 307.259 228.402 307.238 229.253 307.459C230.103 307.681 230.866 308.135 231.443 308.765C232.02 309.395 232.386 310.173 232.496 310.999C232.5 311.035 232.504 311.072 232.508 311.108C232.203 311.27 231.905 311.442 231.613 311.624C231.247 311.855 230.963 312.185 230.798 312.572C230.634 312.958 230.597 313.382 230.692 313.788C230.788 314.194 231.011 314.564 231.333 314.848C231.654 315.133 232.06 315.319 232.495 315.382L232.54 315.389C232.431 316.425 232.24 317.452 231.966 318.461C234.598 328.065 228.916 331.563 220.805 331.72C220.626 331.806 220.451 331.893 220.272 331.975C221.812 336.095 222.778 340.386 223.146 344.74C223.354 347.31 223.342 349.89 223.109 352.458L223.123 352.367C223.711 349.512 225.325 346.936 227.692 345.074C231.207 342.349 236.174 341.345 239.967 339.154C240.37 338.91 240.839 338.78 241.318 338.779C241.797 338.777 242.266 338.906 242.67 339.148C243.075 339.39 243.397 339.737 243.6 340.146C243.802 340.556 243.876 341.012 243.813 341.46L243.798 341.556C243.233 341.773 242.682 342.023 242.15 342.305C241.845 342.468 241.547 342.64 241.255 342.822C240.888 343.053 240.604 343.383 240.44 343.769C240.276 344.155 240.239 344.579 240.334 344.986C240.43 345.392 240.653 345.761 240.974 346.046C241.296 346.33 241.701 346.516 242.137 346.58L242.182 346.586C242.214 346.591 242.242 346.595 242.274 346.599C241.308 348.776 239.952 350.78 238.265 352.523C236.62 360.906 229.553 361.702 221.994 359.26H221.989C221.16 362.662 219.958 365.973 218.403 369.14H205.594C205.548 369.005 205.506 368.867 205.465 368.732C206.651 368.803 207.841 368.736 209.009 368.533C208.059 367.433 207.109 366.323 206.158 365.223C206.137 365.202 206.117 365.18 206.099 365.158C205.616 364.594 205.13 364.035 204.648 363.472L204.647 363.471C204.622 361.745 204.832 360.022 205.273 358.346Z" fill="#F2F2F2"/>
<path d="M103.198 175.656L86.0404 209.435L87.2651 344.049H101.961C101.961 344.049 104.818 340.412 104.818 337.864C104.818 335.315 99.9581 334.946 103.198 331.818C106.439 328.69 107.519 327.67 107.519 324.613V275.69L119.106 228.266L117.881 280.374L159.52 327.274L169.22 318.12C169.22 318.12 172.056 316.94 169.22 314.406C166.383 311.871 164.614 316.347 164.418 309.268C164.223 302.188 165.843 303.717 164.223 302.188C162.603 300.659 139.925 275.11 139.925 275.11C139.925 275.11 160.442 192.611 150.182 176.812L103.198 175.656Z" fill="#2F2E41"/>
<path d="M151.262 179.36C151.262 179.36 106.979 164.58 110.219 156.426C113.459 148.271 118.902 149.84 112.4 147.272C105.899 144.704 101.591 144.194 105.635 140.626C109.679 137.059 115.619 133.491 115.619 129.924C115.619 126.356 120.48 98.3249 120.48 98.3249H128.26L136.141 85.5834H147.273L152.882 97.3056H164.725L165.303 115.144C165.303 115.144 166.068 149.604 162.445 150.976C158.823 152.349 155.582 152.349 158.823 155.406C162.063 158.464 163.908 160.046 162.445 162.823C160.983 165.6 151.262 179.36 151.262 179.36Z" fill="#E6E6E6"/>
<path d="M157.742 102.402L164.725 97.3055C164.725 97.3055 176.644 97.3055 178.264 103.421C179.884 109.537 189.635 124.494 189.635 124.494C189.635 124.494 199.325 119.221 203.106 119.221C206.886 119.221 209.586 121.769 209.586 118.711C209.586 115.653 207.426 115.144 210.666 115.144C213.907 115.144 222.547 112.086 222.547 112.086L231.764 120.784C231.764 120.784 230.648 128.904 226.867 128.395C223.087 127.885 220.927 125.337 220.927 128.395C220.927 131.453 223.087 136.039 218.227 136.549C213.366 137.059 180.964 144.704 180.964 144.704L158.822 114.124L157.742 102.402Z" fill="#E6E6E6"/>
<path d="M129.66 102.402L122.678 97.3055C122.678 97.3055 110.759 97.3055 109.139 103.421C107.519 109.537 97.2237 124.494 97.2237 124.494C97.2237 124.494 88.0773 119.221 84.297 119.221C80.5167 119.221 77.8165 121.769 77.8165 118.711C77.8165 115.653 79.9767 115.144 76.7364 115.144C73.4962 115.144 64.8556 112.086 64.8556 112.086L55.6387 120.784C55.6387 120.784 56.755 128.904 60.5353 128.395C64.3155 127.885 66.4757 125.337 66.4757 128.395C66.4757 131.453 64.3155 136.039 69.1759 136.549C74.0362 137.059 106.439 144.704 106.439 144.704L128.58 114.124L129.66 102.402Z" fill="#E6E6E6"/>
<path d="M140.413 82.8154C149.931 82.8154 157.647 75.5336 157.647 66.5509C157.647 57.5683 149.931 50.2864 140.413 50.2864C130.894 50.2864 123.178 57.5683 123.178 66.5509C123.178 75.5336 130.894 82.8154 140.413 82.8154Z" fill="#FFB6B6"/>
<path d="M159.218 64.0956C157.192 66.41 154.178 66.2893 151.498 65.9203C150.652 65.8063 149.806 65.6788 148.96 65.5312C148.811 65.0817 148.64 64.6322 148.448 64.1962C147.655 62.3753 146.469 60.7303 144.965 59.3659C145.123 61.1497 144.977 62.946 144.531 64.6859C142.96 64.3438 141.397 63.9614 139.84 63.5387C138.462 63.3274 137.224 62.6247 136.38 61.5759C135.536 60.5271 135.151 59.2124 135.305 57.9035C133.065 59.5135 130.627 60.9089 128.068 60.9358C126.625 60.9004 125.233 60.43 124.094 59.5933C122.956 58.7567 122.131 57.5978 121.741 56.2867C121.045 54.2741 121.151 51.9529 121.436 49.7793C121.777 47.1965 122.545 44.3587 124.393 43.3189C125.879 42.4736 127.592 43.0773 129.12 43.7616C132.487 45.2867 135.679 47.1346 138.646 49.2761L138.681 49.9805C139.449 46.5122 141.987 43.8354 144.752 43.5671C146.614 43.3927 148.434 44.2044 150.19 45.0229C152.485 45.9783 154.619 47.2463 156.524 48.7864C158.676 50.6338 160.17 53.0636 160.803 55.7433C161.464 58.6481 160.966 62.0964 159.218 64.0956Z" fill="#2F2E41"/>
<path d="M142.158 41.5237C142.334 41.5377 141.9 41.4437 142.041 41.4996C141.972 41.4697 141.906 41.4346 141.842 41.3947C141.832 41.3881 141.692 41.2813 141.783 41.3557C141.572 41.2008 141.414 40.9916 141.326 40.7534C141.13 40.1746 141.039 39.5688 141.056 38.9614C141.091 38.1632 140.947 37.367 140.633 36.625C140.54 36.4241 140.398 36.2468 140.219 36.1074C140.039 35.9679 139.828 35.8704 139.601 35.8227C139.374 35.775 139.139 35.7784 138.913 35.8326C138.688 35.8869 138.48 35.9905 138.305 36.1351C137.723 36.6734 137.677 37.5828 137.636 38.3061C137.592 39.057 137.676 39.8098 137.886 40.5354C138.247 41.7285 138.967 42.7967 139.96 43.61C141.107 44.5577 142.546 45.1313 144.066 45.2457C144.274 45.2413 144.477 45.1797 144.65 45.0684C144.822 44.9571 144.956 44.8009 145.036 44.6188C145.116 44.4367 145.138 44.2367 145.1 44.043C145.061 43.8493 144.964 43.6703 144.82 43.5279L142.912 41.8184C142.712 41.6297 142.44 41.5237 142.158 41.5237C141.875 41.5237 141.604 41.6297 141.404 41.8184C141.204 42.0071 141.091 42.2631 141.091 42.53C141.091 42.7969 141.204 43.0528 141.404 43.2415L143.312 44.951L144.066 43.2331C143.751 43.2064 143.44 43.1465 143.139 43.0545C142.813 42.969 142.501 42.8401 142.214 42.6718C141.932 42.526 141.668 42.3517 141.426 42.1519C141.271 42.0235 141.123 41.8878 140.983 41.7453C140.932 41.6935 140.882 41.6408 140.833 41.5873C140.837 41.5911 140.633 41.3491 140.72 41.4598C140.5 41.1751 140.308 40.8716 140.147 40.5532C140.09 40.4405 140.043 40.3235 140.007 40.2036C139.94 40.0063 139.884 39.8054 139.842 39.602C139.76 39.1746 139.736 38.7393 139.769 38.3062C139.778 38.1225 139.797 37.9394 139.827 37.7576C139.854 37.6617 139.874 37.5643 139.886 37.4658C139.89 37.2215 139.851 37.5963 139.716 37.6532L139.178 37.7906C139.09 37.7839 139.005 37.7586 138.929 37.7167C138.854 37.6747 138.789 37.6172 138.739 37.5484C138.717 37.4644 138.723 37.4793 138.758 37.5931C138.799 37.7266 138.83 37.8625 138.852 37.9998C138.893 38.319 138.917 38.64 138.924 38.9614C138.931 39.6425 139.014 40.321 139.174 40.9853C139.323 41.6528 139.692 42.2588 140.228 42.7169C140.764 43.1749 141.439 43.4617 142.158 43.5363C142.44 43.5342 142.71 43.4275 142.909 43.2392C143.108 43.051 143.222 42.7962 143.224 42.53C143.218 42.2648 143.104 42.0119 142.905 41.8243C142.707 41.6367 142.439 41.529 142.158 41.5237Z" fill="#2F2E41"/>
<path d="M230.173 106.844C224.309 99.4837 220.92 91.2527 220.809 81.8686C220.62 81.3629 220.652 80.8071 220.896 80.3232C221.141 79.8393 221.579 79.4667 222.115 79.2873L242.101 72.6133C242.637 72.435 243.226 72.4646 243.739 72.6956C244.252 72.9266 244.646 73.3401 244.836 73.8454L254.2 98.8211C254.389 99.3268 254.358 99.8826 254.113 100.366C253.868 100.85 253.43 101.223 252.895 101.402L232.908 108.076C232.372 108.255 231.783 108.225 231.271 107.994C230.758 107.763 230.363 107.35 230.173 106.844Z" fill="#4F0573"/>
<path opacity="0.2" d="M234.685 106.399C234.15 106.577 233.561 106.548 233.048 106.317C232.535 106.086 232.14 105.672 231.95 105.167C226.087 97.8065 222.697 89.5755 222.586 80.1914C222.464 79.8588 222.437 79.5016 222.508 79.156L222.115 79.2873C221.579 79.4667 221.141 79.8393 220.896 80.3232C220.652 80.8071 220.62 81.3629 220.809 81.8686C220.92 91.2526 224.309 99.4837 230.173 106.844C230.363 107.35 230.758 107.763 231.271 107.994C231.784 108.225 232.372 108.255 232.908 108.076L252.895 101.402C253.25 101.283 253.564 101.077 253.807 100.805C254.05 100.534 254.213 100.206 254.279 99.8566L234.685 106.399Z" fill="black"/>
<path d="M244.049 87.7054L230.669 92.2128C230.456 92.2845 230.221 92.2735 230.017 92.1821C229.813 92.0907 229.655 91.9265 229.579 91.7256C229.503 91.5246 229.515 91.3034 229.612 91.1106C229.709 90.9178 229.883 90.7692 230.096 90.6975L243.476 86.1901C243.581 86.1545 243.693 86.139 243.805 86.1442C243.917 86.1495 244.026 86.1755 244.127 86.2207C244.229 86.266 244.319 86.3296 244.395 86.4079C244.47 86.4862 244.528 86.5778 244.565 86.6773C244.603 86.7768 244.619 86.8823 244.614 86.9878C244.608 87.0933 244.581 87.1967 244.533 87.2922C244.485 87.3877 244.417 87.4733 244.334 87.5442C244.251 87.6151 244.154 87.6698 244.049 87.7054Z" fill="white"/>
<path d="M232.041 87.0661L229.097 88.0577C228.992 88.0934 228.88 88.1091 228.768 88.1039C228.656 88.0988 228.547 88.0729 228.446 88.0278C228.344 87.9827 228.254 87.9192 228.178 87.8409C228.103 87.7627 228.045 87.6712 228.007 87.5718C227.969 87.4723 227.953 87.3668 227.958 87.2613C227.964 87.1558 227.991 87.0523 228.039 86.9568C228.087 86.8612 228.154 86.7755 228.237 86.7046C228.32 86.6336 228.417 86.5787 228.522 86.5431L228.524 86.5424L231.468 85.5508C231.681 85.4793 231.915 85.4905 232.119 85.582C232.323 85.6734 232.48 85.8375 232.556 86.0383C232.632 86.2391 232.621 86.4601 232.524 86.6529C232.427 86.8456 232.254 86.9942 232.041 87.0661Z" fill="white"/>
<path d="M246.569 94.367L233.188 98.8744C232.976 98.9464 232.741 98.9356 232.537 98.8445C232.332 98.7533 232.175 98.5893 232.098 98.3884C232.022 98.1876 232.034 97.9664 232.13 97.7734C232.227 97.5805 232.4 97.4317 232.613 97.3597L232.615 97.3591L245.995 92.8517C246.208 92.7802 246.443 92.7914 246.647 92.8829C246.851 92.9743 247.008 93.1384 247.084 93.3392C247.16 93.54 247.148 93.761 247.052 93.9538C246.955 94.1465 246.781 94.2951 246.569 94.367Z" fill="white"/>
<path d="M245.309 91.0362L231.929 95.5436C231.823 95.5792 231.711 95.5949 231.6 95.5898C231.488 95.5847 231.378 95.5588 231.277 95.5137C231.176 95.4686 231.085 95.405 231.01 95.3268C230.934 95.2486 230.876 95.1571 230.839 95.0576C230.801 94.9582 230.784 94.8527 230.79 94.7472C230.795 94.6416 230.822 94.5382 230.87 94.4426C230.918 94.3471 230.985 94.2614 231.068 94.1904C231.151 94.1195 231.248 94.0646 231.353 94.0289L231.355 94.0283L244.736 89.5209C244.841 89.4853 244.953 89.4696 245.065 89.4747C245.176 89.4798 245.286 89.5057 245.387 89.5508C245.489 89.596 245.579 89.6595 245.655 89.7377C245.73 89.816 245.788 89.9074 245.826 90.0069C245.863 90.1063 245.88 90.2118 245.875 90.3174C245.869 90.4229 245.842 90.5264 245.794 90.6219C245.746 90.7174 245.679 90.8031 245.596 90.8741C245.513 90.9451 245.416 90.9999 245.311 91.0356L245.309 91.0362Z" fill="white"/>
<path d="M231.576 79.5456C233.539 79.5456 235.13 78.0438 235.13 76.1913C235.13 74.3388 233.539 72.837 231.576 72.837C229.613 72.837 228.022 74.3388 228.022 76.1913C228.022 78.0438 229.613 79.5456 231.576 79.5456Z" fill="#3F3D56"/>
<path d="M56.0664 21.3464C59.6461 12.7796 65.3063 5.7479 73.7227 0.749603C74.0805 0.333105 74.5988 0.0675881 75.1639 0.0112893C75.7289 -0.0450096 76.2946 0.112513 76.7367 0.449303L93.2191 13.0335C93.6605 13.3713 93.9418 13.8604 94.0015 14.3937C94.0611 14.9269 93.8942 15.4607 93.5373 15.878L75.8811 36.4748C75.5232 36.8913 75.0049 37.1568 74.4398 37.2131C73.8748 37.2694 73.3092 37.1119 72.867 36.7751L56.3846 24.1908C55.9433 23.8531 55.6619 23.364 55.6023 22.8307C55.5426 22.2974 55.7095 21.7636 56.0664 21.3464Z" fill="#4F0573"/>
<path opacity="0.2" d="M58.8289 24.7429C58.3875 24.4051 58.1062 23.916 58.0465 23.3827C57.9869 22.8495 58.1538 22.3156 58.5107 21.8984C62.0904 13.3316 67.7506 6.29988 76.167 1.30158C76.4034 1.02923 76.7118 0.82065 77.0611 0.696934L76.7367 0.44928C76.2946 0.112495 75.7289 -0.0450371 75.1639 0.0112564C74.5989 0.0675499 74.0806 0.333073 73.7227 0.74956C65.3064 5.74787 59.6461 12.7796 56.0664 21.3464C55.7095 21.7636 55.5426 22.2974 55.6023 22.8307C55.6619 23.364 55.9433 23.8531 56.3846 24.1908L72.867 36.7751C73.1606 36.9977 73.5113 37.143 73.8836 37.1965C74.2559 37.2499 74.6365 37.2096 74.9869 37.0794L58.8289 24.7429Z" fill="black"/>
<path d="M80.6089 22.495L69.539 14.091C69.3635 13.957 69.2514 13.7629 69.2273 13.5511C69.2033 13.3393 69.2692 13.1271 69.4107 12.9612C69.5522 12.7952 69.7576 12.6889 69.982 12.6657C70.2064 12.6425 70.4313 12.7042 70.6076 12.8373L81.6776 21.2414C81.853 21.3753 81.9651 21.5694 81.9891 21.7812C82.0131 21.993 81.9472 22.2051 81.8057 22.3711C81.6642 22.537 81.4588 22.6433 81.2345 22.6665C81.0101 22.6897 80.7851 22.6281 80.6089 22.495Z" fill="white"/>
<path d="M74.9045 12.5023L72.4691 10.6534C72.2939 10.5194 72.182 10.3253 72.1581 10.1136C72.1342 9.90193 72.2002 9.68995 72.3415 9.52408C72.4829 9.35822 72.6882 9.25199 72.9124 9.22869C73.1366 9.20538 73.3615 9.26689 73.5377 9.39973L75.9731 11.2486C76.1485 11.3826 76.2604 11.5767 76.2843 11.7884C76.3083 12.0002 76.2424 12.2122 76.1009 12.3781C75.9595 12.544 75.7542 12.6503 75.5299 12.6735C75.3057 12.6968 75.0807 12.6352 74.9045 12.5023Z" fill="white"/>
<path d="M75.9111 28.0064L64.8411 19.6024C64.6656 19.4685 64.5535 19.2743 64.5295 19.0625C64.5054 18.8507 64.5713 18.6385 64.7128 18.4725C64.8543 18.3065 65.0598 18.2003 65.2842 18.1771C65.5085 18.1539 65.7335 18.2156 65.9097 18.3487L76.9797 26.7528C77.1549 26.8868 77.2668 27.0809 77.2907 27.2925C77.3146 27.5042 77.2486 27.7162 77.1072 27.882C76.9659 28.0479 76.7606 28.1541 76.5364 28.1774C76.3122 28.2008 76.0873 28.1392 75.9111 28.0064Z" fill="white"/>
<path d="M78.2599 25.2507L67.19 16.8467C67.1026 16.7807 67.0298 16.6991 66.9758 16.6066C66.9218 16.514 66.8876 16.4124 66.8753 16.3074C66.8503 16.0953 66.9156 15.8826 67.0568 15.716C67.1981 15.5494 67.4037 15.4425 67.6283 15.419C67.853 15.3954 68.0785 15.457 68.255 15.5903L68.2586 15.593L79.3286 23.9971C79.5051 24.1304 79.6183 24.3244 79.6432 24.5364C79.6682 24.7485 79.6029 24.9612 79.4617 25.1278C79.3204 25.2944 79.1149 25.4013 78.8902 25.4248C78.6655 25.4484 78.4401 25.3868 78.2635 25.2535L78.2599 25.2507Z" fill="white"/>
<path d="M84.4819 9.79379C86.4449 9.79379 88.0362 8.29201 88.0362 6.43947C88.0362 4.58693 86.4449 3.08514 84.4819 3.08514C82.5189 3.08514 80.9276 4.58693 80.9276 6.43947C80.9276 8.29201 82.5189 9.79379 84.4819 9.79379Z" fill="#3F3D56"/>
<path d="M15.2965 121.628C6.62321 110.741 1.61022 98.5661 1.44594 84.6858C1.1665 83.9377 1.21288 83.1156 1.57489 82.3999C1.9369 81.6841 2.58498 81.133 3.37696 80.8676L32.94 70.9959C33.7326 70.7322 34.6037 70.7759 35.3622 71.1176C36.1206 71.4592 36.7045 72.0708 36.9857 72.8182L50.8363 109.761C51.1157 110.509 51.0693 111.331 50.7073 112.047C50.3453 112.763 49.6972 113.314 48.9053 113.579L19.3422 123.451C18.5496 123.714 17.6785 123.671 16.92 123.329C16.1616 122.987 15.5777 122.376 15.2965 121.628Z" fill="#4F0573"/>
<path opacity="0.2" d="M21.9708 120.97C21.1782 121.234 20.3071 121.19 19.5487 120.848C18.7902 120.507 18.2063 119.895 17.9251 119.148C9.25185 108.26 4.23888 96.0853 4.07454 82.2049C3.89366 81.713 3.85367 81.1846 3.95865 80.6733L3.37689 80.8676C2.58492 81.133 1.93686 81.684 1.57484 82.3998C1.21283 83.1156 1.16644 83.9377 1.44585 84.6857C1.61014 98.566 6.62309 110.741 15.2964 121.628C15.5776 122.376 16.1615 122.987 16.92 123.329C17.6785 123.671 18.5495 123.714 19.3421 123.451L48.9052 113.579C49.4297 113.402 49.8953 113.097 50.2547 112.696C50.6142 112.294 50.8548 111.81 50.9521 111.292L21.9708 120.97Z" fill="black"/>
<path d="M35.8209 93.3191L16.0296 99.9862C15.8735 100.039 15.7079 100.063 15.5422 100.055C15.3765 100.048 15.2139 100.01 15.0639 99.9428C14.9139 99.8759 14.7793 99.7818 14.6679 99.6658C14.5565 99.5498 14.4705 99.4142 14.4147 99.2667C14.3589 99.1193 14.3345 98.9629 14.3429 98.8065C14.3513 98.6502 14.3923 98.4969 14.4636 98.3555C14.5348 98.2141 14.635 98.0874 14.7582 97.9826C14.8815 97.8779 15.0254 97.797 15.1818 97.7448L34.9732 91.0778C35.1291 91.0252 35.2945 91.0022 35.4599 91.01C35.6252 91.0178 35.7874 91.0562 35.937 91.1231C36.0866 91.1901 36.2208 91.2841 36.3319 91.4C36.443 91.5159 36.5289 91.6513 36.5845 91.7984C36.6402 91.9456 36.6646 92.1017 36.6563 92.2578C36.6481 92.4138 36.6073 92.5668 36.5364 92.708C36.4655 92.8492 36.3658 92.9759 36.2431 93.0808C36.1203 93.1856 35.9768 93.2666 35.8209 93.3191Z" fill="white"/>
<path d="M18.0591 92.3736L13.7051 93.8403C13.3904 93.9454 13.0444 93.9283 12.743 93.793C12.4417 93.6577 12.2094 93.4152 12.0972 93.1185C11.985 92.8219 12.002 92.4953 12.1445 92.2105C12.287 91.9257 12.5433 91.7058 12.8573 91.599L17.2114 90.1322C17.526 90.0272 17.872 90.0442 18.1734 90.1795C18.4748 90.3148 18.707 90.5574 18.8192 90.8541C18.9314 91.1507 18.9144 91.4772 18.772 91.7621C18.6295 92.0469 18.3731 92.2668 18.0591 92.3736Z" fill="white"/>
<path d="M39.5478 103.173L19.7565 109.84C19.4415 109.946 19.0948 109.93 18.7926 109.794C18.4904 109.659 18.2575 109.416 18.1451 109.119C18.0327 108.822 18.05 108.495 18.1932 108.209C18.3364 107.924 18.5938 107.704 18.9087 107.598L38.7 100.931C38.856 100.879 39.0214 100.856 39.1867 100.864C39.3521 100.871 39.5142 100.91 39.6639 100.977C39.8135 101.044 39.9477 101.138 40.0588 101.254C40.1699 101.369 40.2557 101.505 40.3114 101.652C40.3671 101.799 40.3915 101.955 40.3832 102.111C40.375 102.267 40.3342 102.42 40.2633 102.562C40.1924 102.703 40.0927 102.829 39.9699 102.934C39.8472 103.039 39.7037 103.12 39.5478 103.173Z" fill="white"/>
<path d="M37.6843 98.2459L17.893 104.913C17.7371 104.965 17.5717 104.989 17.4063 104.981C17.2409 104.973 17.0788 104.934 16.9292 104.868C16.7796 104.801 16.6453 104.707 16.5342 104.591C16.4231 104.475 16.3373 104.339 16.2816 104.192C16.226 104.045 16.2016 103.889 16.2098 103.733C16.2181 103.577 16.2588 103.424 16.3297 103.283C16.4006 103.141 16.5003 103.015 16.6231 102.91C16.7459 102.805 16.8893 102.724 17.0453 102.672L36.8366 96.0045C36.9925 95.952 37.1579 95.929 37.3233 95.9367C37.4887 95.9445 37.6508 95.983 37.8004 96.0499C37.95 96.1168 38.0842 96.2109 38.1953 96.3268C38.3064 96.4426 38.3923 96.578 38.4479 96.7252C38.5036 96.8724 38.528 97.0284 38.5197 97.1845C38.5115 97.3406 38.4708 97.4936 38.3998 97.6348C38.3289 97.776 38.2293 97.9027 38.1065 98.0075C37.9837 98.1124 37.8403 98.1934 37.6843 98.2459Z" fill="white"/>
<path d="M17.3713 81.2498C20.2748 81.2498 22.6286 79.0284 22.6286 76.2882C22.6286 73.5481 20.2748 71.3267 17.3713 71.3267C14.4678 71.3267 12.114 73.5481 12.114 76.2882C12.114 79.0284 14.4678 81.2498 17.3713 81.2498Z" fill="#3F3D56"/>
<path d="M210.384 301.075C200.626 301.028 191.631 298.595 183.647 293.001C183.106 292.837 182.656 292.478 182.396 292.001C182.135 291.524 182.086 290.97 182.259 290.459L188.719 271.402C188.893 270.892 189.274 270.467 189.779 270.221C190.284 269.976 190.872 269.929 191.413 270.092L218.151 278.166C218.692 278.33 219.142 278.689 219.402 279.166C219.662 279.643 219.711 280.197 219.539 280.708L213.078 299.765C212.904 300.275 212.523 300.7 212.018 300.945C211.513 301.191 210.925 301.238 210.384 301.075Z" fill="#F2F2F2"/>
<path opacity="0.2" d="M212.738 297.415C212.564 297.925 212.183 298.35 211.678 298.595C211.173 298.841 210.585 298.887 210.044 298.725C200.286 298.678 191.291 296.245 183.307 290.651C182.952 290.542 182.634 290.346 182.386 290.084L182.259 290.459C182.086 290.97 182.135 291.524 182.396 292.001C182.656 292.478 183.106 292.837 183.647 293.001C191.631 298.595 200.626 301.028 210.384 301.075C210.925 301.237 211.513 301.191 212.018 300.945C212.523 300.7 212.904 300.275 213.078 299.765L219.539 280.708C219.652 280.369 219.669 280.008 219.587 279.661C219.505 279.314 219.327 278.994 219.072 278.733L212.738 297.415Z" fill="black"/>
<path d="M202.631 279.069L198.339 291.85C198.306 291.951 198.252 292.045 198.18 292.126C198.108 292.208 198.02 292.275 197.921 292.324C197.822 292.373 197.713 292.403 197.602 292.413C197.49 292.422 197.378 292.411 197.271 292.38C197.164 292.348 197.065 292.297 196.979 292.229C196.893 292.161 196.822 292.078 196.77 291.985C196.718 291.891 196.686 291.788 196.676 291.683C196.666 291.578 196.678 291.472 196.712 291.371L196.714 291.364L201.006 278.583C201.075 278.381 201.226 278.212 201.426 278.115C201.627 278.017 201.86 277.998 202.075 278.063C202.289 278.127 202.469 278.269 202.573 278.457C202.677 278.646 202.698 278.866 202.631 279.069Z" fill="white"/>
<path d="M194.827 287.706L193.883 290.518C193.849 290.619 193.795 290.712 193.723 290.793C193.652 290.874 193.564 290.941 193.465 290.99C193.365 291.039 193.257 291.07 193.145 291.079C193.034 291.089 192.922 291.077 192.815 291.046C192.708 291.014 192.609 290.963 192.523 290.895C192.437 290.828 192.366 290.745 192.314 290.651C192.262 290.558 192.23 290.455 192.22 290.35C192.21 290.245 192.222 290.139 192.255 290.038L192.257 290.032L193.202 287.22C193.235 287.119 193.289 287.025 193.361 286.944C193.433 286.863 193.521 286.796 193.62 286.747C193.719 286.698 193.827 286.668 193.939 286.658C194.05 286.649 194.163 286.66 194.269 286.692C194.376 286.723 194.475 286.774 194.561 286.842C194.647 286.91 194.718 286.993 194.77 287.086C194.822 287.18 194.854 287.282 194.864 287.387C194.874 287.493 194.862 287.599 194.829 287.7L194.827 287.706Z" fill="white"/>
<path d="M209.776 281.206L205.484 293.987C205.45 294.088 205.396 294.182 205.325 294.263C205.253 294.344 205.165 294.411 205.066 294.46C204.967 294.509 204.858 294.539 204.747 294.549C204.635 294.558 204.523 294.547 204.416 294.515C204.309 294.484 204.21 294.433 204.124 294.365C204.038 294.297 203.967 294.214 203.915 294.121C203.863 294.027 203.831 293.925 203.821 293.82C203.811 293.714 203.823 293.608 203.857 293.507L203.859 293.501L208.15 280.72C208.184 280.619 208.238 280.525 208.309 280.443C208.381 280.362 208.469 280.295 208.568 280.246C208.667 280.197 208.776 280.166 208.888 280.157C208.999 280.147 209.112 280.159 209.219 280.19C209.326 280.222 209.425 280.273 209.511 280.341C209.597 280.408 209.668 280.492 209.72 280.585C209.772 280.679 209.804 280.782 209.814 280.887C209.824 280.992 209.811 281.099 209.778 281.2L209.776 281.206Z" fill="white"/>
<path d="M206.203 280.137L201.911 292.919C201.878 293.02 201.824 293.114 201.752 293.195C201.681 293.276 201.593 293.343 201.494 293.392C201.394 293.442 201.286 293.472 201.174 293.481C201.063 293.491 200.95 293.479 200.843 293.448C200.736 293.416 200.637 293.365 200.551 293.297C200.465 293.23 200.394 293.147 200.342 293.053C200.29 292.959 200.258 292.857 200.248 292.751C200.238 292.646 200.251 292.54 200.284 292.439L200.286 292.433L204.578 279.651C204.611 279.551 204.666 279.457 204.737 279.376C204.809 279.295 204.897 279.228 204.996 279.179C205.095 279.13 205.204 279.099 205.315 279.09C205.427 279.081 205.539 279.092 205.646 279.123C205.753 279.155 205.852 279.206 205.938 279.274C206.024 279.341 206.095 279.424 206.147 279.518C206.199 279.611 206.231 279.714 206.241 279.819C206.251 279.924 206.239 280.03 206.205 280.131L206.203 280.137Z" fill="white"/>
<path d="M185.37 284.831C187.333 284.831 188.925 283.329 188.925 281.476C188.925 279.624 187.333 278.122 185.37 278.122C183.407 278.122 181.816 279.624 181.816 281.476C181.816 283.329 183.407 284.831 185.37 284.831Z" fill="#CCCCCC"/>
<path d="M263.614 150.506C263.961 149.213 262.646 147.782 260.676 147.311C258.706 146.84 256.827 147.506 256.48 148.8C256.132 150.093 257.448 151.524 259.418 151.995C261.388 152.466 263.267 151.799 263.614 150.506Z" fill="white"/>
<path d="M239.556 150.36C239.903 149.066 238.588 147.636 236.618 147.165C234.648 146.693 232.769 147.36 232.422 148.653C232.074 149.947 233.39 151.377 235.36 151.848C237.33 152.319 239.209 151.653 239.556 150.36Z" fill="#3F3D56"/>
<path d="M268.128 169.343C268.476 168.049 267.16 166.619 265.19 166.148C263.22 165.677 261.342 166.343 260.994 167.637C260.647 168.93 261.963 170.36 263.933 170.832C265.903 171.303 267.781 170.636 268.128 169.343Z" fill="#FF6584"/>
<path d="M273.737 176.446C273.879 175.241 273.275 174.189 272.387 174.095C271.499 174.001 270.664 174.902 270.521 176.107C270.378 177.311 270.983 178.364 271.871 178.457C272.759 178.551 273.594 177.65 273.737 176.446Z" fill="#E6E6E6"/>
<path d="M275.715 190.673C275.858 189.469 275.253 188.416 274.365 188.323C273.477 188.229 272.642 189.13 272.499 190.334C272.357 191.539 272.961 192.591 273.849 192.685C274.737 192.779 275.572 191.878 275.715 190.673Z" fill="#3F3D56"/>
<path d="M251.119 163.56C251.262 162.355 250.657 161.303 249.769 161.209C248.881 161.115 248.046 162.016 247.903 163.221C247.761 164.425 248.365 165.478 249.253 165.571C250.141 165.665 250.976 164.764 251.119 163.56Z" fill="#E6E6E6"/>
<path d="M263.226 159.267C263.369 158.063 262.765 157.01 261.877 156.916C260.989 156.823 260.153 157.723 260.01 158.928C259.868 160.133 260.472 161.185 261.36 161.279C262.248 161.373 263.084 160.472 263.226 159.267Z" fill="#FF6584"/>
<path d="M248.311 147.67C248.453 146.466 247.849 145.413 246.961 145.319C246.073 145.226 245.238 146.126 245.095 147.331C244.952 148.536 245.557 149.588 246.445 149.682C247.333 149.776 248.168 148.875 248.311 147.67Z" fill="#3F3D56"/>
<path d="M38.9828 142.456C39.3301 141.162 38.0146 139.732 36.0446 139.261C34.0745 138.789 32.1959 139.456 31.8486 140.749C31.5013 142.043 32.8168 143.473 34.7869 143.944C36.7569 144.415 38.6355 143.749 38.9828 142.456Z" fill="white"/>
<path d="M14.9248 142.309C15.2721 141.016 13.9566 139.585 11.9866 139.114C10.0165 138.643 8.13796 139.31 7.79066 140.603C7.44335 141.896 8.75883 143.327 10.7289 143.798C12.6989 144.269 14.5775 143.603 14.9248 142.309Z" fill="#3F3D56"/>
<path d="M43.4974 161.292C43.8447 159.999 42.5292 158.569 40.5592 158.098C38.5892 157.626 36.7106 158.293 36.3633 159.586C36.016 160.88 37.3315 162.31 39.3015 162.781C41.2715 163.252 43.1501 162.586 43.4974 161.292Z" fill="#FF6584"/>
<path d="M49.1056 168.395C49.2482 167.191 48.644 166.138 47.756 166.045C46.868 165.951 46.0325 166.852 45.8899 168.056C45.7473 169.261 46.3515 170.313 47.2395 170.407C48.1275 170.501 48.963 169.6 49.1056 168.395Z" fill="#E6E6E6"/>
<path d="M51.0839 182.623C51.2265 181.418 50.6223 180.366 49.7343 180.272C48.8463 180.178 48.0108 181.079 47.8682 182.284C47.7256 183.488 48.3298 184.541 49.2178 184.635C50.1058 184.728 50.9412 183.828 51.0839 182.623Z" fill="#3F3D56"/>
<path d="M26.488 155.509C26.6306 154.305 26.0264 153.252 25.1384 153.158C24.2504 153.065 23.4149 153.965 23.2723 155.17C23.1297 156.375 23.7339 157.427 24.6219 157.521C25.5099 157.615 26.3453 156.714 26.488 155.509Z" fill="#E6E6E6"/>
<path d="M38.5951 151.217C38.7377 150.012 38.1335 148.96 37.2455 148.866C36.3575 148.772 35.522 149.673 35.3794 150.878C35.2368 152.082 35.841 153.135 36.729 153.229C37.617 153.322 38.4525 152.421 38.5951 151.217Z" fill="#FF6584"/>
<path d="M23.6796 139.62C23.8223 138.415 23.218 137.363 22.33 137.269C21.4421 137.175 20.6066 138.076 20.4639 139.281C20.3213 140.485 20.9255 141.538 21.8135 141.632C22.7015 141.725 23.537 140.825 23.6796 139.62Z" fill="#3F3D56"/>
<path d="M192.498 206.803C186.634 199.443 183.245 191.212 183.134 181.828C182.945 181.322 182.976 180.766 183.221 180.282C183.466 179.798 183.904 179.426 184.439 179.246L204.426 172.572C204.962 172.394 205.551 172.424 206.063 172.654C206.576 172.885 206.971 173.299 207.161 173.804L216.525 198.78C216.714 199.286 216.682 199.841 216.438 200.325C216.193 200.809 215.755 201.182 215.219 201.361L195.233 208.035C194.697 208.214 194.108 208.184 193.595 207.953C193.082 207.722 192.688 207.309 192.498 206.803Z" fill="#F2F2F2"/>
<path opacity="0.2" d="M197.01 206.358C196.474 206.536 195.885 206.507 195.372 206.276C194.86 206.045 194.465 205.631 194.275 205.126C188.411 197.765 185.022 189.534 184.911 180.15C184.789 179.818 184.762 179.46 184.833 179.115L184.439 179.246C183.904 179.426 183.466 179.798 183.221 180.282C182.976 180.766 182.945 181.322 183.134 181.827C183.245 191.212 186.634 199.443 192.498 206.803C192.688 207.308 193.083 207.722 193.595 207.953C194.108 208.184 194.697 208.214 195.233 208.035L215.22 201.361C215.574 201.242 215.889 201.036 216.132 200.764C216.375 200.493 216.538 200.165 216.603 199.815L197.01 206.358Z" fill="black"/>
<path d="M206.374 187.664L192.993 192.172C192.78 192.243 192.546 192.232 192.342 192.141C192.137 192.05 191.98 191.885 191.904 191.684C191.828 191.484 191.84 191.262 191.936 191.069C192.033 190.877 192.207 190.728 192.42 190.656L205.8 186.149C205.906 186.113 206.018 186.098 206.129 186.103C206.241 186.108 206.351 186.134 206.452 186.18C206.553 186.225 206.644 186.288 206.719 186.367C206.794 186.445 206.852 186.537 206.89 186.636C206.927 186.736 206.944 186.841 206.938 186.947C206.933 187.052 206.905 187.156 206.857 187.251C206.809 187.347 206.742 187.432 206.659 187.503C206.576 187.574 206.479 187.629 206.374 187.664Z" fill="white"/>
<path d="M194.365 187.025L191.422 188.017C191.316 188.052 191.205 188.068 191.093 188.063C190.981 188.058 190.871 188.032 190.77 187.987C190.669 187.942 190.578 187.878 190.503 187.8C190.428 187.722 190.369 187.63 190.332 187.531C190.294 187.431 190.277 187.326 190.283 187.22C190.288 187.115 190.316 187.011 190.363 186.916C190.411 186.82 190.479 186.734 190.561 186.663C190.644 186.592 190.741 186.538 190.847 186.502L190.849 186.501L193.792 185.51C194.005 185.438 194.239 185.449 194.443 185.541C194.647 185.632 194.805 185.796 194.881 185.997C194.957 186.198 194.945 186.419 194.848 186.612C194.752 186.804 194.578 186.953 194.365 187.025Z" fill="white"/>
<path d="M208.893 194.326L195.513 198.833C195.408 198.869 195.296 198.885 195.184 198.879C195.072 198.874 194.962 198.848 194.861 198.803C194.76 198.758 194.669 198.695 194.594 198.616C194.519 198.538 194.461 198.447 194.423 198.347C194.385 198.248 194.369 198.142 194.374 198.037C194.379 197.931 194.407 197.828 194.455 197.732C194.502 197.637 194.57 197.551 194.653 197.48C194.736 197.409 194.832 197.354 194.938 197.319L194.94 197.318L208.32 192.811C208.533 192.739 208.767 192.75 208.971 192.842C209.175 192.933 209.333 193.097 209.409 193.298C209.485 193.499 209.473 193.72 209.376 193.913C209.28 194.105 209.106 194.254 208.893 194.326Z" fill="white"/>
<path d="M207.633 190.995L194.253 195.502C194.148 195.538 194.036 195.554 193.924 195.549C193.812 195.544 193.703 195.518 193.601 195.473C193.5 195.427 193.409 195.364 193.334 195.286C193.259 195.207 193.201 195.116 193.163 195.017C193.125 194.917 193.109 194.812 193.114 194.706C193.12 194.601 193.147 194.497 193.195 194.402C193.243 194.306 193.31 194.22 193.393 194.149C193.476 194.078 193.573 194.023 193.678 193.988L193.68 193.987L207.06 189.48C207.273 189.408 207.507 189.419 207.712 189.51C207.916 189.601 208.074 189.765 208.15 189.966C208.227 190.167 208.215 190.388 208.119 190.581C208.022 190.774 207.848 190.922 207.635 190.994L207.633 190.995Z" fill="white"/>
<path d="M193.9 179.505C195.863 179.505 197.455 178.003 197.455 176.15C197.455 174.298 195.863 172.796 193.9 172.796C191.937 172.796 190.346 174.298 190.346 176.15C190.346 178.003 191.937 179.505 193.9 179.505Z" fill="#CCCCCC"/>
</g>
<defs>
<clipPath id="clip0_16_296">
<rect width="277" height="370" fill="white"/>
</clipPath>
</defs>
</svg>
