<svg width="430" height="384" viewBox="0 0 430 384" fill="none" xmlns="http://www.w3.org/2000/svg">
<g clip-path="url(#clip0_20_836)">
<path d="M347.061 69.9465C344.771 97.0453 338.244 125.619 328.009 153.19C315.351 187.284 298.057 217.314 277.997 240.033L276.884 238.991C296.847 216.381 314.062 186.483 326.667 152.53C338.058 121.847 344.834 89.9173 346.27 60.2059L347.692 60.4616C347.542 63.5995 347.331 66.7611 347.061 69.9465Z" fill="#F2F2F2"/>
<path d="M356.186 227.331C328.009 275.456 293.826 309.841 259.931 324.152L259.246 322.803C292.906 308.591 326.889 274.381 354.936 226.476L356.186 227.331Z" fill="#F2F2F2"/>
<path d="M346.378 103.686C344.087 130.784 337.56 159.358 327.325 186.929C314.667 221.023 297.374 251.053 277.313 273.772L276.2 272.73C296.163 250.12 313.378 220.222 325.983 186.269C337.374 155.586 344.15 123.656 345.586 93.9448L347.009 94.2005C346.858 97.3384 346.647 100.5 346.378 103.686Z" fill="#F2F2F2"/>
<path d="M30.0662 173.256H11.5794C11.1844 173.257 10.7944 173.162 10.4385 172.978C10.0827 172.794 9.77028 172.526 9.52474 172.194C9.28216 171.87 9.11103 171.491 9.02417 171.087C8.93731 170.682 8.93698 170.261 9.02321 169.856C10.7839 161.515 10.6733 152.845 8.7005 144.559C8.57571 144.014 8.60589 143.44 8.78713 142.913C8.96837 142.386 9.29238 141.93 9.71746 141.602C19.2234 134.262 26.7097 134.475 31.9685 142.236C32.2055 142.59 32.363 142.998 32.4285 143.428C33.8336 152.497 33.9114 161.746 32.659 170.84C32.572 171.511 32.2613 172.126 31.7846 172.57C31.3079 173.014 30.6975 173.258 30.0662 173.256Z" fill="#E6E6E6"/>
<path d="M24.3348 153.381H17.9752C17.6236 153.381 17.2863 153.231 17.0376 152.964C16.789 152.697 16.6493 152.335 16.6493 151.957C16.6493 151.58 16.789 151.217 17.0376 150.95C17.2863 150.684 17.6236 150.534 17.9752 150.534H24.3348C24.6859 150.534 25.0225 150.685 25.2706 150.952C25.5186 151.218 25.6579 151.58 25.6579 151.957C25.6579 152.334 25.5186 152.696 25.2706 152.963C25.0225 153.23 24.6859 153.38 24.3348 153.381Z" fill="white"/>
<path d="M24.3348 158.373H17.9752C17.6236 158.373 17.2863 158.223 17.0376 157.956C16.789 157.689 16.6493 157.327 16.6493 156.95C16.6493 156.572 16.789 156.21 17.0376 155.943C17.2863 155.676 17.6236 155.526 17.9752 155.526H24.3348C24.6859 155.527 25.0225 155.677 25.2706 155.944C25.5186 156.211 25.6579 156.573 25.6579 156.95C25.6579 157.327 25.5186 157.688 25.2706 157.955C25.0225 158.222 24.6859 158.372 24.3348 158.373Z" fill="white"/>
<path d="M24.3348 163.366H17.9752C17.6236 163.366 17.2863 163.216 17.0376 162.949C16.789 162.682 16.6493 162.32 16.6493 161.942C16.6493 161.564 16.789 161.202 17.0376 160.935C17.2863 160.668 17.6236 160.518 17.9752 160.518H24.3348C24.6859 160.519 25.0225 160.67 25.2706 160.936C25.5186 161.203 25.6579 161.565 25.6579 161.942C25.6579 162.319 25.5186 162.681 25.2706 162.948C25.0225 163.214 24.6859 163.365 24.3348 163.366Z" fill="white"/>
<path d="M366.046 261.873H347.559C347.164 261.873 346.774 261.778 346.419 261.594C346.063 261.41 345.75 261.142 345.505 260.81C345.262 260.486 345.091 260.108 345.004 259.703C344.917 259.298 344.917 258.878 345.003 258.473C346.764 250.132 346.653 241.461 344.68 233.176C344.556 232.63 344.586 232.057 344.767 231.53C344.948 231.003 345.272 230.546 345.697 230.219C355.203 222.879 362.69 223.092 367.948 230.853C368.186 231.206 368.343 231.614 368.409 232.044C369.814 241.113 369.891 250.362 368.639 259.456C368.552 260.128 368.241 260.742 367.765 261.186C367.288 261.631 366.677 261.874 366.046 261.873Z" fill="#E6E6E6"/>
<path d="M360.315 241.997H353.955C353.604 241.996 353.268 241.846 353.019 241.579C352.771 241.312 352.632 240.951 352.632 240.573C352.632 240.196 352.771 239.835 353.019 239.568C353.268 239.301 353.604 239.151 353.955 239.15H360.315C360.666 239.15 361.004 239.3 361.252 239.567C361.501 239.834 361.641 240.196 361.641 240.573C361.641 240.951 361.501 241.313 361.252 241.58C361.004 241.847 360.666 241.997 360.315 241.997Z" fill="white"/>
<path d="M360.315 246.989H353.955C353.604 246.989 353.268 246.838 353.019 246.571C352.771 246.305 352.632 245.943 352.632 245.566C352.632 245.189 352.771 244.827 353.019 244.56C353.268 244.293 353.604 244.143 353.955 244.142H360.315C360.666 244.142 361.004 244.292 361.252 244.559C361.501 244.826 361.641 245.188 361.641 245.566C361.641 245.943 361.501 246.306 361.252 246.573C361.004 246.839 360.666 246.989 360.315 246.989Z" fill="white"/>
<path d="M360.315 251.982H353.955C353.604 251.981 353.268 251.831 353.019 251.564C352.771 251.297 352.632 250.935 352.632 250.558C352.632 250.181 352.771 249.82 353.019 249.553C353.268 249.286 353.604 249.136 353.955 249.135H360.315C360.666 249.135 361.004 249.285 361.252 249.552C361.501 249.819 361.641 250.181 361.641 250.558C361.641 250.936 361.501 251.298 361.252 251.565C361.004 251.832 360.666 251.982 360.315 251.982Z" fill="white"/>
<path d="M110.967 337.788L109.814 320.571C102.262 316.518 93.9013 314.505 85.4595 314.708C97.336 324.564 96.3847 344.262 104.61 357.743C107.205 361.926 110.644 365.429 114.672 367.992C118.7 370.554 123.213 372.111 127.877 372.546L137.761 378.651C138.892 370.628 138.389 362.438 136.287 354.643C134.186 346.849 130.535 339.637 125.587 333.503C122.779 330.092 119.583 327.073 116.072 324.52C113.912 331.179 110.967 337.788 110.967 337.788Z" fill="#F2F2F2"/>
<path d="M320.032 340.285L321.186 323.068C328.738 319.014 337.099 317.001 345.54 317.204C333.664 327.06 334.615 346.758 326.39 360.239C323.795 364.422 320.356 367.925 316.328 370.488C312.3 373.05 307.787 374.607 303.123 375.043L293.239 381.147C292.108 373.125 292.611 364.934 294.713 357.14C296.814 349.345 300.465 342.133 305.413 335.999C308.221 332.588 311.417 329.57 314.927 327.016C317.088 333.675 320.032 340.285 320.032 340.285Z" fill="#F2F2F2"/>
<path d="M210.268 145.994C216.368 145.994 221.313 140.685 221.313 134.137C221.313 127.588 216.368 122.28 210.268 122.28C204.169 122.28 199.224 127.588 199.224 134.137C199.224 140.685 204.169 145.994 210.268 145.994Z" fill="#4F0573"/>
<path d="M215.938 129.195C215.772 129.025 215.551 128.93 215.321 128.93C215.092 128.93 214.871 129.025 214.705 129.195C212.361 131.202 210.257 133.51 208.438 136.068C207.991 135.14 207.544 134.213 207.098 133.285C206.583 132.214 205.077 133.16 205.592 134.23C206.245 135.587 206.898 136.943 207.552 138.3C207.63 138.439 207.741 138.553 207.873 138.633C208.005 138.712 208.153 138.754 208.305 138.754C208.456 138.754 208.604 138.712 208.736 138.633C208.868 138.553 208.979 138.439 209.057 138.3C210.996 135.369 213.312 132.749 215.938 130.519C216.1 130.343 216.191 130.105 216.191 129.857C216.191 129.609 216.1 129.371 215.938 129.195Z" fill="white"/>
<path d="M160.851 167.759L144.196 139.679L163.482 128.591L168.544 150.015L204.208 170.705C205.616 170.161 207.141 170.069 208.597 170.439C210.054 170.809 211.378 171.627 212.409 172.791C213.44 173.956 214.133 175.417 214.404 176.997C214.674 178.577 214.511 180.208 213.934 181.69C213.356 183.172 212.389 184.442 211.151 185.344C209.913 186.247 208.457 186.743 206.961 186.772C205.465 186.802 203.993 186.363 202.725 185.51C201.457 184.657 200.447 183.427 199.82 181.968L160.851 167.759Z" fill="#A0616A"/>
<path d="M132.028 106C126.795 114.249 145.392 144.232 145.392 144.232C146.298 142.135 154.958 165.678 156.408 164.287C160.531 160.335 166.984 149.325 170.571 148.834C172.623 148.553 165.814 132.934 165.814 132.934C165.814 132.934 162.702 123.711 158.479 111.929C157.343 108.574 155.434 105.583 152.931 103.233C150.429 100.883 147.413 99.2513 144.164 98.4894C144.164 98.4894 137.261 97.7515 132.028 106Z" fill="#3F3D56"/>
<path d="M132.284 374.742L140.193 374.741L143.956 341.988L132.282 341.988L132.284 374.742Z" fill="#A0616A"/>
<path d="M130.266 371.969L132.492 371.969L141.184 368.174L145.843 371.969H145.843C148.476 371.969 151.001 373.092 152.863 375.09C154.724 377.089 155.77 379.799 155.77 382.626V382.972L130.266 382.973L130.266 371.969Z" fill="#2F2E41"/>
<path d="M169.03 374.742L176.94 374.741L180.703 341.988L169.029 341.988L169.03 374.742Z" fill="#A0616A"/>
<path d="M167.013 371.969L169.239 371.969L177.931 368.174L182.589 371.969H182.59C185.223 371.969 187.748 373.092 189.609 375.09C191.471 377.089 192.517 379.799 192.517 382.626V382.972L167.013 382.973L167.013 371.969Z" fill="#2F2E41"/>
<path d="M172.454 195.675L121.006 197.056C111.235 202.753 111.087 215.085 114.289 229.727C114.289 229.727 113.208 238.429 115.369 240.75C117.531 243.07 118.612 243.07 117.531 247.131C116.45 251.193 122.16 257.826 121.467 258.57C120.773 259.315 119.152 263.376 119.152 263.376L124.556 296.445C124.556 296.445 128.339 353.881 129.419 355.041C130.5 356.202 131.581 355.041 130.5 357.942C129.419 360.843 128.339 359.682 129.419 360.843C130.377 361.951 131.279 363.113 132.121 364.324H145.187C145.187 364.324 146.172 358.522 146.172 357.942C146.172 357.362 147.252 353.881 147.252 353.301C147.252 352.721 146.297 351.695 146.297 351.695C145.967 350.516 145.744 349.305 145.631 348.079C145.631 346.919 142.389 302.247 142.389 302.247L148.874 244.231L164.545 301.086C164.545 301.086 164.545 350.98 165.626 352.14C166.706 353.301 166.706 352.721 166.166 355.041C165.626 357.362 163.464 356.782 165.085 358.522C166.706 360.263 167.247 357.362 166.706 360.263L166.166 363.163L182.378 363.412C182.378 363.412 184.539 358.522 183.458 356.782C182.378 355.041 182.443 355.516 183.761 352.668C185.08 349.82 185.62 349.24 185.08 348.659C184.539 348.079 184.539 344.993 184.539 344.993L181.837 289.483C181.837 289.483 181.297 230.887 181.297 229.146C181.256 228.251 181.41 227.357 181.746 226.536V224.174L179.676 215.803L172.454 195.675Z" fill="#2F2E41"/>
<path d="M141.549 80.825C150.377 80.825 157.534 73.1415 157.534 63.6635C157.534 54.1855 150.377 46.5021 141.549 46.5021C132.72 46.5021 125.564 54.1855 125.564 63.6635C125.564 73.1415 132.72 80.825 141.549 80.825Z" fill="#A0616A"/>
<path d="M149.541 92.1675C152.985 94.3655 155.045 98.404 156.228 102.514C158.417 110.122 159.735 117.988 160.152 125.939L161.401 149.741L176.87 200.424C163.464 212.603 113.069 203.192 113.069 203.192C113.069 203.192 111.523 202.638 113.069 200.977C114.616 199.316 116.122 200.788 114.575 199.127C113.029 197.466 114.095 199.316 114.611 197.656C115.126 195.995 114.611 197.102 114.095 196.548C113.579 195.995 118.087 191.012 118.087 191.012L113.962 161.92L108.805 103.239C114.993 94.9354 127.437 90.0403 127.437 90.0403L130.653 83.8265L146.73 85.2073L149.541 92.1675Z" fill="#3F3D56"/>
<path d="M154.726 54.5459C155.968 55.5408 156.889 56.9289 157.357 58.5148C157.538 55.923 157.549 53.3209 157.392 50.7274C157.203 48.9049 156.008 48.495 154.624 48.02C153.375 47.5908 151.961 47.106 151.581 45.3368C146.556 40.0889 137.809 40.3535 131.823 42.1841C128.529 43.1914 126.633 44.4856 126.464 45.2438L126.429 45.3999L126.295 45.4717C123.756 46.8346 123.262 51.1386 123.294 54.5092C123.356 60.8595 125.398 68.0719 126.549 68.6578C126.61 68.6888 126.625 68.6766 126.652 68.653C128.384 67.1667 130.498 68.766 131.426 69.6354C131.974 65.6886 133.738 62.0527 136.437 59.3084C139.135 56.5642 142.612 54.8698 146.313 54.4961C147.521 54.3707 148.72 54.1548 149.901 53.8502C150.499 53.6838 151.115 53.5971 151.733 53.5919C152.798 53.5746 153.842 53.9075 154.726 54.5459Z" fill="#2F2E41"/>
<path d="M253.959 209.349L284.708 175.826L292.81 149.014L279.773 143.353C273.314 150.347 266.666 171.757 266.666 171.757L245.679 201.998C245.511 202.065 245.344 202.136 245.18 202.219C244.213 202.709 243.381 203.458 242.763 204.394C242.145 205.33 241.763 206.421 241.653 207.563C241.543 208.704 241.709 209.856 242.134 210.908C242.56 211.96 243.232 212.877 244.084 213.569C244.936 214.261 245.94 214.705 246.999 214.859C248.058 215.013 249.136 214.871 250.129 214.446C251.122 214.022 251.996 213.33 252.667 212.437C253.338 211.545 253.783 210.481 253.959 209.349Z" fill="#FFB8B8"/>
<path d="M276.216 146.42L292.703 151.541L292.765 151.528C298.825 150.265 303.619 139.452 306.573 130.604C307.545 127.686 307.448 124.48 306.303 121.635C305.158 118.79 303.049 116.518 300.403 115.279C298.445 114.378 296.292 114.084 294.187 114.429C292.082 114.773 290.108 115.743 288.489 117.229L280.269 124.828L276.216 146.42Z" fill="#4F0573"/>
<path d="M262.111 373.746L253.244 373.745L249.026 337.029L262.112 337.029L262.111 373.746Z" fill="#FFB8B8"/>
<path d="M264.372 370.638L261.877 370.638L252.133 366.384L246.911 370.637H246.91C243.959 370.637 241.128 371.896 239.042 374.136C236.955 376.377 235.782 379.415 235.782 382.584V382.972L264.372 382.973L264.372 370.638Z" fill="#2F2E41"/>
<path d="M301.453 373.746L292.586 373.745L288.369 337.029L301.455 337.029L301.453 373.746Z" fill="#FFB8B8"/>
<path d="M303.715 370.638L301.22 370.638L291.476 366.384L286.254 370.637H286.253C283.302 370.637 280.471 371.896 278.385 374.136C276.298 376.377 275.125 379.415 275.125 382.584V382.972L303.715 382.973L303.715 370.638Z" fill="#2F2E41"/>
<path d="M314.973 215.593C314.973 215.593 316.009 228.932 313.42 241.714C310.832 254.497 310.832 290.497 310.832 290.497L305.138 360.649L288.055 358.981L283.395 241.714L266.83 281.174L268.383 286.732L266.314 288.121C266.314 288.121 267.865 298.958 266.83 298.958C265.795 298.958 263.206 300.626 263.206 300.626L265.277 357.87L247.676 357.314L241.464 276.728L248.194 230.599L248.712 221.707L251.041 221.81L252.227 218.094L254.406 211.703L314.973 215.593Z" fill="#2F2E41"/>
<path d="M315.868 218.395L315.96 218.256C320.888 210.85 313.477 193.053 312.359 190.473L317.067 188.833L316.007 179.158L315.505 174.845L319.103 170.982L319.113 170.886L321.184 151.434L324.194 138.514C325.329 133.63 325.232 128.51 323.914 123.679C322.596 118.848 320.105 114.481 316.695 111.026L309.736 103.981L301.279 90.5459H287.64L282.963 100.029C278.429 101.154 274.407 103.951 271.596 107.933C268.785 111.915 267.365 116.829 267.582 121.819L268.642 146.691L264.493 177.659L264.49 183.263L259.821 188.834L260.841 194.308L257.287 195.943L255.718 203.804C255.068 204.724 250.782 210.859 250.782 212.537C250.782 212.789 250.955 213.032 251.327 213.302C254.248 215.426 270.393 219.755 277.538 216.685C285.15 213.418 315.406 218.319 315.711 218.369L315.868 218.395Z" fill="#4F0573"/>
<path d="M292.697 86.2088C302.673 86.2088 310.76 77.5266 310.76 66.8165C310.76 56.1064 302.673 47.4242 292.697 47.4242C282.721 47.4242 274.634 56.1064 274.634 66.8165C274.634 77.5266 282.721 86.2088 292.697 86.2088Z" fill="#FFB8B8"/>
<path d="M290.967 86.5228C293.764 86.4921 296.554 86.2049 299.306 85.6644C302.03 84.9906 308.041 80.0007 309.679 77.0528C310.896 74.8625 311.627 71.4747 312.025 69.0186C312.564 65.768 312.46 62.4323 311.721 59.2275C310.982 56.0227 309.624 53.0202 307.736 50.4145C307.008 49.3229 306.019 48.4628 304.873 47.9252C304.771 47.8859 304.667 47.8514 304.562 47.8224C302.901 47.4021 301.395 46.4584 300.237 45.1124C300.013 44.8399 299.77 44.5852 299.511 44.3502C298.212 43.2337 296.686 42.4631 295.056 42.1013C292.424 41.4226 288.658 42.2731 283.865 44.6313C281.456 45.8161 278.783 45.4856 276.723 45.0652C276.607 45.0446 276.489 45.0568 276.379 45.1006C276.269 45.1444 276.172 45.2183 276.097 45.3149C275.247 46.2176 274.109 46.7413 272.914 46.7805C272.182 46.8354 271.44 47.9453 270.546 49.3906C270.343 49.7187 270.106 50.1016 269.934 50.3352L269.9 49.8964L269.497 50.3982C268.865 51.1868 268.428 52.1344 268.228 53.1528C268.029 54.1713 268.073 55.2274 268.355 56.2228C268.638 57.2183 269.151 58.1207 269.846 58.846C270.542 59.5713 271.397 60.0959 272.331 60.371C273.073 60.561 273.831 60.6692 274.593 60.694C275.055 60.7257 275.533 60.7586 275.992 60.831C277.467 61.1128 278.848 61.8002 280.001 62.8262C281.154 63.8522 282.04 65.1816 282.571 66.6848C282.697 67.0321 282.895 67.3439 283.151 67.596C283.406 67.848 283.712 68.0337 284.045 68.1386C284.378 68.2435 284.729 68.2648 285.071 68.201C285.413 68.1371 285.737 67.9897 286.017 67.7702C286.484 67.3591 287.036 67.0751 287.627 66.9426C288.218 66.8101 288.83 66.833 289.41 67.0093C289.915 67.2928 290.314 67.754 290.54 68.3157C290.813 68.9409 291.254 69.4646 291.805 69.8199C293.686 70.7957 293.923 75.3431 293.348 79.1553C292.793 82.8299 291.587 85.5105 290.414 85.6739C289.511 85.7995 289.409 85.8715 289.348 86.0452L289.293 86.2007L289.398 86.3418C289.903 86.5225 290.438 86.5842 290.967 86.5228Z" fill="#2F2E41"/>
<path d="M275.981 148.494L267.298 136.617C258.454 139.232 242.762 154.249 242.762 154.249L210.535 169.263C209.459 169.069 208.355 169.183 207.333 169.592C206.311 170.002 205.408 170.694 204.715 171.597C204.021 172.501 203.561 173.585 203.382 174.74C203.202 175.895 203.31 177.08 203.692 178.177C204.075 179.273 204.721 180.242 205.563 180.986C206.406 181.729 207.416 182.222 208.492 182.413C209.568 182.604 210.672 182.488 211.693 182.075C212.714 181.663 213.615 180.969 214.307 180.064L256.523 167.419L275.981 148.494Z" fill="#FFB8B8"/>
<path d="M273.9 151.21L287.6 134.814L288.36 123.196C288.502 120.915 288.046 118.637 287.045 116.619C286.044 114.601 284.537 112.924 282.694 111.777C280.187 110.241 277.23 109.784 274.421 110.499C271.612 111.214 269.16 113.047 267.562 115.628C262.722 123.461 257.514 134.05 260.194 140.021L260.221 140.081L273.9 151.21Z" fill="#4F0573"/>
<path d="M147.632 212.835L112.026 193.258C109.494 191.865 108.655 188.172 110.156 185.024L133.372 136.358C134.873 133.21 138.156 131.782 140.688 133.175L176.294 152.752C178.827 154.145 179.666 157.839 178.164 160.986L154.948 209.653C153.447 212.8 150.165 214.228 147.632 212.835Z" fill="#E6E6E6"/>
<path d="M141.549 203.835L117.357 190.534C114.985 189.23 114.2 185.771 115.606 182.823L134.893 142.392C136.299 139.444 139.373 138.107 141.745 139.411L170.963 155.476C173.335 156.78 174.121 160.239 172.715 163.187L162.237 185.152C155.973 198.282 152.114 209.645 141.549 203.835Z" fill="white"/>
<path d="M153.509 181.756L132.082 169.975C131.82 169.774 131.634 169.479 131.558 169.144C131.482 168.808 131.521 168.454 131.667 168.147C131.814 167.84 132.059 167.599 132.357 167.469C132.655 167.34 132.987 167.329 133.291 167.441L154.718 179.222C154.98 179.422 155.166 179.717 155.242 180.053C155.318 180.388 155.28 180.742 155.133 181.049C154.986 181.357 154.742 181.597 154.444 181.727C154.145 181.857 153.814 181.867 153.509 181.756Z" fill="#4F0573"/>
<path d="M134.584 177.67L129.694 174.981C129.432 174.781 129.246 174.486 129.17 174.15C129.094 173.815 129.132 173.461 129.279 173.153C129.426 172.846 129.67 172.605 129.969 172.476C130.267 172.346 130.598 172.336 130.903 172.447L135.793 175.136C136.055 175.336 136.241 175.631 136.317 175.966C136.393 176.302 136.355 176.656 136.208 176.963C136.061 177.271 135.817 177.511 135.518 177.641C135.22 177.771 134.889 177.781 134.584 177.67Z" fill="#4F0573"/>
<path d="M140.856 187.438L127.306 179.987C127.044 179.787 126.858 179.492 126.782 179.157C126.705 178.821 126.744 178.467 126.891 178.16C127.037 177.852 127.282 177.612 127.58 177.482C127.878 177.353 128.21 177.342 128.515 177.453L142.065 184.904C142.327 185.104 142.513 185.399 142.589 185.735C142.666 186.07 142.627 186.424 142.48 186.731C142.333 187.039 142.089 187.279 141.791 187.409C141.492 187.539 141.161 187.549 140.856 187.438Z" fill="#4F0573"/>
<path d="M161.988 163.981L140.561 152.2C140.299 152 140.113 151.705 140.037 151.369C139.961 151.034 140 150.68 140.146 150.373C140.293 150.065 140.538 149.825 140.836 149.695C141.134 149.565 141.466 149.555 141.77 149.666L163.197 161.447C163.459 161.648 163.645 161.943 163.721 162.278C163.798 162.614 163.759 162.968 163.612 163.275C163.466 163.582 163.221 163.823 162.923 163.953C162.625 164.082 162.293 164.093 161.988 163.981Z" fill="#4F0573"/>
<path d="M143.063 159.895L138.173 157.207C137.911 157.006 137.725 156.711 137.649 156.376C137.573 156.04 137.611 155.686 137.758 155.379C137.905 155.072 138.149 154.831 138.448 154.701C138.746 154.572 139.077 154.561 139.382 154.673L144.272 157.361C144.534 157.562 144.72 157.856 144.796 158.192C144.872 158.528 144.834 158.881 144.687 159.189C144.54 159.496 144.296 159.737 143.997 159.866C143.699 159.996 143.368 160.006 143.063 159.895Z" fill="#4F0573"/>
<path d="M149.335 169.664L135.785 162.213C135.523 162.013 135.337 161.718 135.261 161.382C135.184 161.047 135.223 160.693 135.37 160.385C135.517 160.078 135.761 159.837 136.059 159.708C136.358 159.578 136.689 159.568 136.994 159.679L150.544 167.129C150.806 167.33 150.992 167.625 151.068 167.96C151.145 168.296 151.106 168.65 150.959 168.957C150.813 169.264 150.568 169.505 150.27 169.635C149.972 169.764 149.64 169.775 149.335 169.664Z" fill="#4F0573"/>
<path d="M118.127 170.466L110.083 138.317L131.578 133.948L130.423 156.015L158.666 187.237C160.161 187.171 161.642 187.574 162.927 188.396C164.213 189.219 165.248 190.425 165.906 191.867C166.564 193.31 166.817 194.928 166.634 196.522C166.451 198.117 165.84 199.619 164.875 200.847C163.91 202.075 162.633 202.975 161.2 203.438C159.767 203.9 158.239 203.905 156.804 203.451C155.368 202.997 154.086 202.105 153.115 200.883C152.143 199.661 151.524 198.162 151.333 196.569L118.127 170.466Z" fill="#A0616A"/>
<path d="M107.884 102.27C100.587 108.454 109.952 143.045 109.952 143.045C111.402 141.336 113.087 166.584 114.859 165.724C119.896 163.281 129.128 154.855 132.687 155.542C134.722 155.935 132.59 138.842 132.59 138.842C132.59 138.842 132.198 129.041 131.461 116.442C131.314 112.876 130.329 109.408 128.598 106.361C126.866 103.313 124.445 100.785 121.559 99.0126C121.559 99.0126 115.18 96.086 107.884 102.27Z" fill="#3F3D56"/>
<path d="M229.287 241.826L209.857 231.975C209.442 231.766 209.076 231.458 208.787 231.075C208.498 230.692 208.294 230.244 208.189 229.764C208.084 229.294 208.079 228.805 208.175 228.334C208.27 227.862 208.465 227.419 208.742 227.04C214.371 219.317 218.235 210.286 220.027 200.671C220.162 199.935 220.531 199.272 221.071 198.795C221.611 198.318 222.288 198.057 222.987 198.056C232.896 198.092 240.303 201.977 244.999 209.601C245.246 209.997 245.41 210.447 245.48 210.919C245.549 211.39 245.521 211.872 245.399 212.331C242.68 222.394 238.542 231.95 233.129 240.668C232.727 241.327 232.117 241.807 231.41 242.02C230.704 242.233 229.95 242.164 229.287 241.826Z" fill="#E6E6E6"/>
<path d="M235.003 228.01L220.147 220.478C219.777 220.291 219.492 219.954 219.354 219.541C219.216 219.128 219.237 218.673 219.411 218.276C219.586 217.879 219.9 217.573 220.285 217.425C220.669 217.277 221.093 217.299 221.463 217.486L236.319 225.018C236.502 225.11 236.666 225.241 236.802 225.402C236.938 225.563 237.044 225.751 237.112 225.955C237.18 226.16 237.21 226.377 237.2 226.594C237.191 226.811 237.141 227.024 237.055 227.22C236.968 227.417 236.847 227.593 236.697 227.739C236.547 227.885 236.372 227.998 236.181 228.071C235.991 228.145 235.789 228.177 235.586 228.166C235.384 228.156 235.186 228.103 235.003 228.01Z" fill="white"/>
<path d="M237.311 222.763L222.455 215.231C222.085 215.044 221.8 214.706 221.662 214.293C221.524 213.88 221.545 213.425 221.719 213.029C221.894 212.632 222.208 212.326 222.593 212.178C222.977 212.029 223.401 212.052 223.771 212.239L238.627 219.771C238.997 219.958 239.282 220.295 239.42 220.708C239.558 221.121 239.537 221.576 239.363 221.973C239.188 222.37 238.874 222.676 238.489 222.824C238.104 222.972 237.681 222.95 237.311 222.763Z" fill="white"/>
<path d="M217.46 58.0469L216.077 58.2095C209.911 32.196 197.959 14.1742 181.513 6.09188C160.605 -4.18214 134.753 2.71706 108.717 25.5188C82.5483 48.437 59.3825 84.6378 43.487 127.454L42.1451 126.795C58.1104 83.7916 81.3952 47.4158 107.71 24.3702C134.157 1.20815 160.537 -5.74163 181.992 4.80139C198.91 13.1153 211.174 31.5273 217.46 58.0469Z" fill="#F2F2F2"/>
<path d="M64.8885 91.9261C61.272 100.105 57.8321 108.579 54.6643 117.112C36.435 166.214 27.1972 216.361 27.9521 262.133L26.5274 261.97C25.7717 216.027 35.0361 165.708 53.3225 116.453C56.4994 107.896 59.9491 99.3982 63.576 91.1958L64.8885 91.9261Z" fill="#F2F2F2"/>
<path d="M64.2047 125.665C60.5882 133.844 57.1483 142.318 53.9805 150.851C35.7512 199.953 26.5134 250.1 27.2683 295.872L25.8436 295.709C25.0879 249.766 34.3523 199.447 52.6386 150.192C55.8155 141.635 59.2652 133.137 62.8921 124.935L64.2047 125.665Z" fill="#F2F2F2"/>
<path d="M25.9121 137.935C27.4871 135.394 26.5549 131.756 23.83 129.81C21.1052 127.863 17.6195 128.346 16.0446 130.887C14.4696 133.429 15.4018 137.067 18.1267 139.013C20.8515 140.959 24.3372 140.477 25.9121 137.935Z" fill="#CCCCCC"/>
<path d="M361.277 229.715C362.852 227.174 361.92 223.536 359.195 221.589C356.47 219.643 352.984 220.126 351.41 222.667C349.835 225.209 350.767 228.847 353.492 230.793C356.217 232.739 359.702 232.257 361.277 229.715Z" fill="#CCCCCC"/>
</g>
<defs>
<clipPath id="clip0_20_836">
<rect width="441" height="384" fill="white" transform="translate(-5)"/>
</clipPath>
</defs>
</svg>
