<svg width="370" height="259" viewBox="0 0 370 259" fill="none" xmlns="http://www.w3.org/2000/svg">
<g clip-path="url(#clip0_16_223)">
<path d="M366.535 168.662H110.237C109.318 168.661 108.438 168.296 107.788 167.647C107.139 166.998 106.773 166.118 106.772 165.201V6.66266H370V165.201C369.999 166.118 369.634 166.998 368.984 167.647C368.334 168.296 367.454 168.661 366.535 168.662Z" fill="#E6E6E6"/>
<path d="M359.02 158.754H117.752C116.824 158.753 115.933 158.384 115.277 157.728C114.62 157.073 114.251 156.183 114.25 155.256V24.6938C114.251 23.7664 114.62 22.8772 115.277 22.2214C115.934 21.5656 116.824 21.1967 117.752 21.1956H359.02C359.948 21.1967 360.839 21.5656 361.495 22.2214C362.152 22.8772 362.521 23.7664 362.522 24.6938V155.256C362.521 156.183 362.152 157.073 361.495 157.728C360.839 158.384 359.948 158.753 359.02 158.754Z" fill="white"/>
<path d="M369.888 11.5583H106.66V3.46056C106.661 2.54307 107.026 1.66346 107.676 1.0147C108.326 0.365942 109.206 0.0010217 110.125 0H366.423C367.341 0.0010217 368.222 0.365942 368.872 1.0147C369.521 1.66346 369.887 2.54307 369.888 3.46056L369.888 11.5583Z" fill="#4F0573"/>
<path d="M115.161 7.97138C116.304 7.97138 117.231 7.04605 117.231 5.90459C117.231 4.76313 116.304 3.8378 115.161 3.8378C114.018 3.8378 113.092 4.76313 113.092 5.90459C113.092 7.04605 114.018 7.97138 115.161 7.97138Z" fill="white"/>
<path d="M123.016 7.97138C124.159 7.97138 125.086 7.04605 125.086 5.90459C125.086 4.76313 124.159 3.8378 123.016 3.8378C121.873 3.8378 120.947 4.76313 120.947 5.90459C120.947 7.04605 121.873 7.97138 123.016 7.97138Z" fill="white"/>
<path d="M130.871 7.97138C132.014 7.97138 132.941 7.04605 132.941 5.90459C132.941 4.76313 132.014 3.8378 130.871 3.8378C129.728 3.8378 128.802 4.76313 128.802 5.90459C128.802 7.04605 129.728 7.97138 130.871 7.97138Z" fill="white"/>
<path d="M163.913 44.6076H139.046V55.5999H163.913V44.6076Z" fill="#E6E6E6"/>
<path d="M213.646 67.4065H188.779V78.3988H213.646V67.4065Z" fill="#E6E6E6"/>
<path d="M163.913 101.605H139.046V112.597H163.913V101.605Z" fill="#4F0573"/>
<path d="M213.646 124.404H188.779V135.396H213.646V124.404Z" fill="#4F0573"/>
<path d="M337.57 135.803H312.704V146.796H337.57V135.803Z" fill="#4F0573"/>
<path d="M312.704 90.2054H287.838V101.198H312.704V90.2054Z" fill="#E6E6E6"/>
<path d="M263.379 90.2054H213.646V101.198H263.379V90.2054Z" fill="#4F0573"/>
<path d="M263.379 32.801H213.646V43.7933H263.379V32.801Z" fill="#4F0573"/>
<path d="M114.18 20.9944V159.009H362.845V20.9944L114.18 20.9944ZM362.029 32.4278H338.06V21.8087H362.029V32.4278ZM214.135 112.461V101.842H262.889V112.461H214.135ZM262.889 113.276V123.895H214.135V113.276H262.889ZM262.889 67.5423V78.1613H214.135V67.5423H262.889ZM214.135 66.728V56.1088H262.889V66.728H214.135ZM214.135 89.5947V78.9755H262.889V89.5947H214.135ZM262.889 90.409V101.028H214.135V90.409H262.889ZM213.32 78.1613H189.35V67.5423H213.32V78.1613ZM213.32 78.9755V89.5947H189.35V78.9755H213.32ZM213.32 90.409V101.028H189.35V90.409H213.32ZM213.32 101.842V112.461H189.35V101.842H213.32ZM263.705 101.842H287.674V112.461H263.705L263.705 101.842ZM263.705 101.028V90.409H287.674V101.028H263.705ZM263.705 89.5947V78.9755H287.674V89.5947H263.705ZM263.705 78.1613V67.5423H287.674V78.1613H263.705ZM263.705 66.728V56.1088H287.674V66.728H263.705ZM263.705 55.2946V44.6753H287.674V55.2946H263.705ZM262.889 55.2946H214.135V44.6753H262.889L262.889 55.2946ZM213.32 55.2946H189.35V44.6753H213.32V55.2946ZM213.32 56.1088V66.728H189.35V56.1088H213.32ZM188.535 66.728H164.565V56.1088H188.535L188.535 66.728ZM188.535 67.5423V78.1613H164.565V67.5423H188.535ZM188.535 78.9755V89.5947H164.565V78.9755H188.535ZM188.535 90.409V101.028H164.565V90.409H188.535ZM188.535 101.842V112.461H164.565V101.842H188.535ZM188.535 113.276V123.895H164.565V113.276H188.535ZM189.35 113.276H213.32V123.895H189.35V113.276ZM213.32 124.709V135.328H189.35V124.709H213.32ZM214.135 124.709H262.889V135.328H214.135V124.709ZM263.705 124.709H287.674V135.328H263.705L263.705 124.709ZM263.705 123.895V113.276H287.674V123.895H263.705ZM288.49 113.276H312.46V123.895H288.49L288.49 113.276ZM288.49 112.461V101.842H312.46V112.461H288.49ZM288.49 101.028V90.409H312.46V101.028H288.49ZM288.49 89.5947V78.9755H312.46V89.5947H288.49ZM288.49 78.1613V67.5423H312.46V78.1613H288.49ZM288.49 66.728V56.1088H312.46V66.728H288.49ZM288.49 55.2946V44.6753H312.46V55.2946H288.49ZM288.49 43.8611V33.2421H312.46V43.8611H288.49ZM287.674 43.8611H263.705V33.2421H287.674L287.674 43.8611ZM262.889 43.8611H214.135V33.2421H262.889L262.889 43.8611ZM213.32 43.8611H189.35V33.2421H213.32V43.8611ZM188.535 43.8611H164.565V33.2421H188.535L188.535 43.8611ZM188.535 44.6753V55.2946H164.565V44.6753H188.535ZM163.75 55.2946H139.78V44.6753H163.75V55.2946ZM163.75 56.1088V66.728H139.78V56.1088H163.75ZM163.75 67.5423V78.1613H139.78V67.5423H163.75ZM163.75 78.9755V89.5947H139.78V78.9755H163.75ZM163.75 90.409V101.028H139.78V90.409H163.75ZM163.75 101.842V112.461H139.78V101.842H163.75ZM163.75 113.276V123.895H139.78V113.276H163.75ZM163.75 124.709V135.328H139.78V124.709H163.75ZM164.565 124.709H188.535V135.328H164.565L164.565 124.709ZM188.535 136.142V146.762H164.565V136.142H188.535ZM189.35 136.142H213.32V146.762H189.35V136.142ZM214.135 136.142H262.889V146.762H214.135V136.142ZM263.705 136.142H287.674V146.762H263.705L263.705 136.142ZM288.49 136.142H312.46V146.762H288.49L288.49 136.142ZM288.49 135.328V124.709H312.46V135.328H288.49ZM313.275 124.709H337.244V135.328H313.275V124.709ZM313.275 123.895V113.276H337.244V123.895H313.275ZM313.275 112.461V101.842H337.244V112.461H313.275ZM313.275 101.028V90.409H337.244V101.028H313.275ZM313.275 89.5947V78.9755H337.244V89.5947H313.275ZM313.275 78.1613V67.5423H337.244V78.1613H313.275ZM313.275 66.728V56.1088H337.244V66.728H313.275ZM313.275 55.2946V44.6753H337.244V55.2946H313.275ZM313.275 43.8611V33.2421H337.244V43.8611H313.275ZM313.275 32.4278V21.8087H337.244V32.4279L313.275 32.4278ZM312.46 32.4278H288.49V21.8087H312.46L312.46 32.4278ZM287.674 32.4278H263.705V21.8087H287.674L287.674 32.4278ZM262.889 32.4278H214.135V21.8087H262.889L262.889 32.4278ZM213.32 32.4278H189.35V21.8087H213.32V32.4278ZM188.535 32.4278H164.565V21.8087H188.535L188.535 32.4278ZM163.75 32.4278H139.78V21.8087H163.75V32.4278ZM163.75 33.2421V43.8611H139.78V33.2421H163.75ZM138.965 43.8611H114.995V33.2421H138.965L138.965 43.8611ZM138.965 44.6753V55.2946H114.995V44.6753H138.965ZM138.965 56.1088V66.728H114.995V56.1088H138.965ZM138.965 67.5423V78.1613H114.995V67.5423H138.965ZM138.965 78.9755V89.5947H114.995V78.9755H138.965ZM138.965 90.409V101.028H114.995V90.409H138.965ZM138.965 101.842V112.461H114.995V101.842H138.965ZM138.965 113.276V123.895H114.995V113.276H138.965ZM138.965 124.709V135.328H114.995V124.709H138.965ZM138.965 136.142V146.762H114.995V136.142H138.965ZM139.78 136.142H163.75V146.762H139.78L139.78 136.142ZM163.75 147.576V158.195H139.78V147.576H163.75ZM164.565 147.576H188.535V158.195H164.565L164.565 147.576ZM189.35 147.576H213.32V158.195H189.35L189.35 147.576ZM214.135 147.576H262.889V158.195H214.135L214.135 147.576ZM263.705 147.576H287.674V158.195H263.705V147.576ZM288.49 147.576H312.46V158.195H288.49L288.49 147.576ZM313.275 147.576H337.244V158.195H313.275V147.576ZM313.275 146.762V136.142H337.244V146.762H313.275ZM338.06 136.142H362.029V146.762H338.06V136.142ZM338.06 135.328V124.709H362.029V135.328H338.06ZM338.06 123.895V113.276H362.029V123.895H338.06ZM338.06 112.461V101.842H362.029V112.461H338.06ZM338.06 101.028V90.409H362.029V101.028H338.06ZM338.06 89.5947V78.9755H362.029V89.5947H338.06ZM338.06 78.1613V67.5423H362.029V78.1613H338.06ZM338.06 66.728V56.1088H362.029V66.728H338.06ZM338.06 55.2946V44.6753H362.029V55.2946H338.06ZM338.06 43.8611V33.2421H362.029V43.8611H338.06ZM138.965 21.8087V32.4279H114.995V21.8087H138.965ZM114.995 147.576H138.965V158.195H114.995V147.576ZM338.06 158.195V147.576H362.029V158.195H338.06Z" fill="#E6E6E6"/>
<path d="M46.4896 95.7744C46.4896 95.7744 33.9098 92.8793 26.9909 98.1869C20.072 103.495 35.7968 115.557 35.7968 115.557L46.4896 95.7744Z" fill="#2F2E41"/>
<path d="M59.4989 165.006C59.2469 164.343 59.1435 163.633 59.1961 162.926C59.2487 162.218 59.4559 161.531 59.8032 160.912C60.1505 160.293 60.6294 159.758 61.2062 159.344C61.783 158.93 62.4436 158.648 63.1416 158.517L65.6839 141.462L72.3646 147.443L68.9262 162.721C69.0694 163.907 68.7721 165.103 68.0907 166.085C67.4092 167.066 66.3911 167.764 65.229 168.046C64.067 168.327 62.8418 168.173 61.7857 167.613C60.7296 167.053 59.916 166.126 59.4989 165.006Z" fill="#FFB8B8"/>
<path d="M33.1659 253.542L39.076 253.15L40.3757 230.197L31.6532 230.775L33.1659 253.542Z" fill="#FFB8B8"/>
<path d="M50.6205 258.499H32.0052V251.316H43.4282C45.3357 251.316 47.1651 252.073 48.514 253.42C49.8628 254.767 50.6205 256.594 50.6205 258.499Z" fill="#2F2E41"/>
<path d="M43.3798 245.371L48.9362 247.419L59.4922 226.989L51.291 223.966L43.3798 245.371Z" fill="#FFB8B8"/>
<path d="M57.7482 256.523L40.2846 250.085L42.7752 243.346L53.4915 247.297C55.281 247.956 56.7348 249.299 57.5331 251.029C58.3314 252.759 58.4087 254.735 57.7482 256.523Z" fill="#2F2E41"/>
<path d="M59.5365 157.192C59.5365 157.192 65.5218 160.41 63.6802 173.285L61.8385 222.026L51.6641 244.245L42.9164 241.946L48.4867 223.865L41.1202 192.138L40.1539 249.763L31.8666 251.143L19.9414 155.352L35.1349 148.455L59.5365 157.192Z" fill="#2F2E41"/>
<path d="M38.1432 90.3043C44.6967 90.3043 50.0094 84.9985 50.0094 78.4534C50.0094 71.9083 44.6967 66.6025 38.1432 66.6025C31.5897 66.6025 26.2771 71.9083 26.2771 78.4534C26.2771 84.9985 31.5897 90.3043 38.1432 90.3043Z" fill="#FFB8B8"/>
<path d="M45.0337 93.5071L39.0483 103.163L30.3006 94.4267L13.9468 105.86C13.373 106.26 12.952 106.842 12.7525 107.512C12.5531 108.182 12.5869 108.9 12.8485 109.548C15.3641 115.76 21.806 134.123 19.9414 155.352C19.9414 155.352 32.3724 152.134 45.2639 155.812C58.1553 159.491 61.3781 158.111 61.3781 158.111C61.3781 158.111 58.1553 134.661 59.9969 129.603C61.5245 125.407 64.6361 111.404 65.6528 106.751C65.7487 106.311 65.7006 105.852 65.5156 105.442C65.3305 105.032 65.0183 104.692 64.625 104.473L45.0337 93.5071Z" fill="#4F0573"/>
<path d="M64.1508 104.529C64.657 104.456 65.1723 104.571 65.6002 104.85C66.0282 105.13 66.3395 105.556 66.476 106.048L74.2696 134.156L72.4279 151.169L63.6802 149.789L64.601 137.834L58.1553 122.66L62.4103 106.087C62.5136 105.684 62.7341 105.322 63.0439 105.044C63.3537 104.767 63.7389 104.587 64.1508 104.529Z" fill="#4F0573"/>
<path d="M28.9675 61.8175C29.7587 60.4762 30.9058 59.3793 32.2819 58.6481C33.6581 57.9168 35.2098 57.5796 36.7658 57.6737C38.3934 57.8776 39.9816 58.3216 41.4786 58.9912L49.2358 62.0133C51.2431 62.7953 53.4414 63.7532 54.3125 65.7213C55.1209 67.548 54.5177 69.6576 53.9072 71.5594L51.0049 80.5996C50.6835 78.5535 50.1318 76.5503 49.3603 74.6279C48.5173 72.7378 47.1839 70.9949 45.3405 70.0504C43.3256 69.0181 40.9507 69.0395 38.6887 69.1482C35.4851 69.3022 32.002 69.7092 29.7258 71.9659C28.5176 73.2475 27.6984 74.8453 27.3636 76.5735C27.034 78.2925 26.8682 80.0388 26.8682 81.7891C25.5545 79.5338 24.4479 77.1645 23.5619 74.71C22.8331 72.8823 22.4178 70.9451 22.3335 68.9797C22.2573 66.9974 22.9159 65.0567 24.1831 63.5291C25.4936 62.0663 27.629 61.2766 29.5069 61.8557" fill="#2F2E41"/>
<path d="M22.3683 171.762C22.6203 171.098 22.7237 170.388 22.6711 169.681C22.6185 168.973 22.4113 168.286 22.064 167.667C21.7167 167.049 21.2378 166.513 20.661 166.099C20.0842 165.686 19.4236 165.403 18.7256 165.272L16.1833 148.217L9.50258 154.198L12.941 169.476C12.7978 170.662 13.0951 171.859 13.7765 172.84C14.458 173.821 15.4762 174.519 16.6382 174.801C17.8002 175.082 19.0254 174.929 20.0815 174.368C21.1376 173.808 21.9512 172.881 22.3683 171.762Z" fill="#FFB8B8"/>
<path d="M14.1146 105.697C13.4174 105.813 12.7809 106.164 12.3106 106.691C11.8404 107.218 11.5648 107.89 11.5295 108.595L8.89161 161.285H18.5602L21.783 133.236L17.6815 108.249C17.6156 107.847 17.471 107.462 17.2559 107.117C17.0408 106.771 16.7596 106.471 16.4282 106.234C16.0969 105.997 15.722 105.827 15.325 105.735C14.928 105.643 14.5167 105.63 14.1146 105.697Z" fill="#4F0573"/>
<path d="M82.9718 259H0V257.984H83.1563L82.9718 259Z" fill="#CCCCCC"/>
</g>
<defs>
<clipPath id="clip0_16_223">
<rect width="370" height="259" fill="white"/>
</clipPath>
</defs>
</svg>
