<svg width="430" height="385" viewBox="0 0 430 385" fill="none" xmlns="http://www.w3.org/2000/svg">
<path d="M257.804 0H122.683C101.667 0 84.6309 17.0041 84.6309 37.9797V346.161C84.6309 367.136 101.667 384.14 122.683 384.14H257.804C278.82 384.14 295.856 367.136 295.856 346.161V37.9797C295.856 17.0041 278.82 0 257.804 0Z" fill="#3F3D56"/>
<path d="M292.293 37.9823V346.161C292.282 355.288 288.645 364.037 282.179 370.491C275.714 376.944 266.947 380.574 257.803 380.585H122.684C113.54 380.574 104.774 376.944 98.3082 370.491C91.8425 364.037 88.2054 355.288 88.1948 346.161V37.9823C88.2054 28.8557 91.8425 20.106 98.3082 13.6526C104.774 7.19911 113.54 3.56892 122.684 3.55835H140.353V9.65028C140.353 12.4082 141.451 15.0531 143.405 17.0033C145.359 18.9534 148.009 20.0491 150.772 20.0492H229.716C232.479 20.0491 235.129 18.9534 237.083 17.0033C239.037 15.0531 240.134 12.4082 240.134 9.65028V3.55835H257.803C266.947 3.56892 275.714 7.19911 282.179 13.6526C288.645 20.106 292.282 28.8557 292.293 37.9823Z" fill="white"/>
<path d="M83.659 77.9275C82.9719 77.9267 82.3131 77.6539 81.8272 77.169C81.3414 76.684 81.068 76.0265 81.0673 75.3407V70.1671C81.0673 69.481 81.3403 68.823 81.8264 68.3379C82.3124 67.8528 82.9716 67.5803 83.659 67.5803C84.3463 67.5803 85.0056 67.8528 85.4916 68.3379C85.9776 68.823 86.2507 69.481 86.2507 70.1671V75.3407C86.2499 76.0265 85.9766 76.684 85.4907 77.169C85.0049 77.6539 84.3461 77.9267 83.659 77.9275Z" fill="#3F3D56"/>
<path d="M83.659 104.456C82.9719 104.455 82.3131 104.183 81.8272 103.698C81.3414 103.213 81.068 102.555 81.0673 101.869V87.628C81.0673 86.9419 81.3403 86.284 81.8264 85.7989C82.3124 85.3137 82.9716 85.0412 83.659 85.0412C84.3463 85.0412 85.0056 85.3137 85.4916 85.7989C85.9776 86.284 86.2507 86.9419 86.2507 87.628V101.869C86.2499 102.555 85.9766 103.213 85.4907 103.698C85.0049 104.183 84.3461 104.455 83.659 104.456Z" fill="#3F3D56"/>
<path d="M83.659 125.783C82.9719 125.783 82.3131 125.51 81.8272 125.025C81.3414 124.54 81.068 123.882 81.0673 123.197V108.955C81.0673 108.269 81.3403 107.611 81.8264 107.126C82.3124 106.641 82.9716 106.368 83.659 106.368C84.3463 106.368 85.0056 106.641 85.4916 107.126C85.9776 107.611 86.2507 108.269 86.2507 108.955V123.197C86.2499 123.882 85.9766 124.54 85.4907 125.025C85.0049 125.51 84.3461 125.783 83.659 125.783Z" fill="#3F3D56"/>
<path d="M296.18 114.143C295.493 114.142 294.834 113.869 294.348 113.384C293.862 112.899 293.589 112.242 293.588 111.556V76.8065C293.588 76.1204 293.861 75.4624 294.347 74.9773C294.834 74.4922 295.493 74.2197 296.18 74.2197C296.867 74.2197 297.527 74.4922 298.013 74.9773C298.499 75.4624 298.772 76.1204 298.772 76.8065V111.556C298.771 112.242 298.498 112.899 298.012 113.384C297.526 113.869 296.867 114.142 296.18 114.143Z" fill="#3F3D56"/>
<path d="M195.811 11.8642H175.725C175.295 11.8642 174.883 11.6939 174.58 11.3907C174.276 11.0875 174.105 10.6763 174.105 10.2475C174.105 9.8187 174.276 9.40748 174.58 9.10428C174.883 8.80108 175.295 8.63074 175.725 8.63074H195.811C196.24 8.63074 196.653 8.80108 196.956 9.10428C197.26 9.40748 197.431 9.8187 197.431 10.2475C197.431 10.6763 197.26 11.0875 196.956 11.3907C196.653 11.6939 196.24 11.8642 195.811 11.8642Z" fill="white"/>
<path d="M206.178 11.5409C206.893 11.5409 207.474 10.9618 207.474 10.2475C207.474 9.53318 206.893 8.9541 206.178 8.9541C205.462 8.9541 204.882 9.53318 204.882 10.2475C204.882 10.9618 205.462 11.5409 206.178 11.5409Z" fill="white"/>
<path d="M132.633 18.8016H115.139C114.28 18.8016 113.456 18.4609 112.849 17.8545C112.241 17.2481 111.9 16.4256 111.9 15.5681C111.9 14.7105 112.241 13.888 112.849 13.2816C113.456 12.6752 114.28 12.3346 115.139 12.3346H132.633C133.493 12.3346 134.317 12.6752 134.924 13.2816C135.532 13.888 135.873 14.7105 135.873 15.5681C135.873 16.4256 135.532 17.2481 134.924 17.8545C134.317 18.4609 133.493 18.8016 132.633 18.8016Z" fill="#E6E6E6"/>
<path d="M198.991 154.364H181.497C180.638 154.364 179.814 154.024 179.206 153.417C178.598 152.811 178.257 151.988 178.257 151.131C178.257 150.273 178.598 149.451 179.206 148.844C179.814 148.238 180.638 147.897 181.497 147.897H198.991C199.85 147.897 200.674 148.238 201.282 148.844C201.889 149.451 202.23 150.273 202.23 151.131C202.23 151.988 201.889 152.811 201.282 153.417C200.674 154.024 199.85 154.364 198.991 154.364Z" fill="#E6E6E6"/>
<path d="M247.317 18.4782C248.927 18.4782 250.233 17.1753 250.233 15.5681C250.233 13.9608 248.927 12.6579 247.317 12.6579C245.707 12.6579 244.401 13.9608 244.401 15.5681C244.401 17.1753 245.707 18.4782 247.317 18.4782Z" fill="#E6E6E6"/>
<path d="M256.388 18.4782C257.998 18.4782 259.304 17.1753 259.304 15.5681C259.304 13.9608 257.998 12.6579 256.388 12.6579C254.778 12.6579 253.472 13.9608 253.472 15.5681C253.472 17.1753 254.778 18.4782 256.388 18.4782Z" fill="#E6E6E6"/>
<path d="M265.459 18.4782C267.069 18.4782 268.375 17.1753 268.375 15.5681C268.375 13.9608 267.069 12.6579 265.459 12.6579C263.849 12.6579 262.543 13.9608 262.543 15.5681C262.543 17.1753 263.849 18.4782 265.459 18.4782Z" fill="#E6E6E6"/>
<path d="M246.162 199.633H125.172C122.057 199.63 119.071 198.393 116.868 196.195C114.665 193.996 113.426 191.015 113.423 187.906V175.792C113.426 172.683 114.665 169.702 116.868 167.504C119.071 165.305 122.057 164.068 125.172 164.065H246.162C249.277 164.068 252.263 165.305 254.466 167.504C256.669 169.702 257.908 172.683 257.911 175.792V187.906C257.908 191.015 256.669 193.996 254.466 196.195C252.263 198.393 249.277 199.63 246.162 199.633ZM125.172 165.358C122.401 165.361 119.744 166.462 117.784 168.418C115.824 170.374 114.722 173.026 114.719 175.792V187.906C114.722 190.672 115.824 193.325 117.784 195.281C119.744 197.237 122.401 198.337 125.172 198.34H246.162C248.933 198.337 251.59 197.237 253.55 195.281C255.51 193.325 256.612 190.673 256.615 187.906V175.792C256.612 173.026 255.51 170.374 253.55 168.418C251.59 166.462 248.933 165.361 246.162 165.358H125.172Z" fill="#E6E6E6"/>
<path d="M198.991 244.256H181.497C180.638 244.256 179.814 243.915 179.206 243.309C178.598 242.702 178.257 241.88 178.257 241.022C178.257 240.165 178.598 239.342 179.206 238.736C179.814 238.129 180.638 237.789 181.497 237.789H198.991C199.85 237.789 200.674 238.129 201.282 238.736C201.889 239.342 202.23 240.165 202.23 241.022C202.23 241.88 201.889 242.702 201.282 243.309C200.674 243.915 199.85 244.256 198.991 244.256Z" fill="#E6E6E6"/>
<path d="M203.01 338.027H177.478C176.856 338.028 176.241 337.907 175.667 337.67C175.092 337.433 174.571 337.085 174.131 336.647C173.691 336.209 173.343 335.688 173.105 335.115C172.867 334.543 172.744 333.928 172.744 333.308C172.744 332.688 172.867 332.074 173.105 331.501C173.343 330.928 173.691 330.408 174.131 329.969C174.571 329.531 175.092 329.184 175.667 328.947C176.241 328.71 176.856 328.588 177.478 328.589H203.01C204.264 328.589 205.466 329.086 206.353 329.971C207.24 330.856 207.738 332.057 207.738 333.308C207.738 334.56 207.24 335.76 206.353 336.645C205.466 337.53 204.264 338.027 203.01 338.027Z" fill="#4F0573"/>
<path d="M246.162 289.525H125.172C122.057 289.521 119.071 288.285 116.868 286.086C114.665 283.888 113.426 280.907 113.423 277.798V265.683C113.426 262.574 114.665 259.593 116.868 257.395C119.071 255.196 122.057 253.96 125.172 253.956H246.162C249.277 253.96 252.263 255.196 254.466 257.395C256.669 259.593 257.908 262.574 257.911 265.683V277.798C257.908 280.907 256.669 283.888 254.466 286.086C252.263 288.285 249.277 289.521 246.162 289.525ZM125.172 255.25C122.401 255.253 119.744 256.353 117.784 258.309C115.824 260.265 114.722 262.917 114.719 265.683V277.798C114.722 280.564 115.824 283.216 117.784 285.172C119.744 287.128 122.401 288.228 125.172 288.231H246.162C248.933 288.228 251.59 287.128 253.55 285.172C255.51 283.216 256.612 280.564 256.615 277.798V265.683C256.612 262.917 255.51 260.265 253.55 258.309C251.59 256.353 248.933 255.253 246.162 255.25H125.172Z" fill="#E6E6E6"/>
<path d="M268.375 125.137H111.9V126.43H268.375V125.137Z" fill="#E6E6E6"/>
<path d="M264.305 176.462C264.457 177.543 265.026 178.522 265.891 179.191C266.755 179.86 267.847 180.166 268.933 180.044C269.154 180.015 269.372 179.969 269.585 179.905L278.289 191.663L285.821 189.354L272.152 174.533C271.817 173.673 271.206 172.947 270.415 172.47C269.623 171.993 268.696 171.79 267.777 171.894C267.255 171.959 266.75 172.125 266.292 172.384C265.834 172.643 265.432 172.989 265.108 173.403C264.785 173.817 264.546 174.291 264.405 174.797C264.265 175.303 264.226 175.832 264.29 176.353C264.295 176.39 264.3 176.426 264.305 176.462Z" fill="#FFB6B6"/>
<path d="M373.845 259.015C373.068 258.247 372.621 257.207 372.6 256.116C372.579 255.024 372.986 253.968 373.733 253.171C373.888 253.011 374.055 252.865 374.234 252.733L369.989 238.74L376.345 234.092L380.084 253.888C380.575 254.67 380.792 255.593 380.703 256.511C380.613 257.43 380.222 258.293 379.589 258.966C379.225 259.346 378.79 259.65 378.309 259.862C377.827 260.074 377.309 260.189 376.783 260.2C376.256 260.212 375.733 260.12 375.243 259.93C374.752 259.74 374.304 259.455 373.924 259.092C373.897 259.067 373.871 259.041 373.845 259.015Z" fill="#FFB6B6"/>
<path d="M337.821 376.657L331.406 376.657L328.354 351.959L337.823 351.96L337.821 376.657Z" fill="#FFB6B6"/>
<path d="M338.047 383.337L318.32 383.336V383.087C318.32 381.055 319.129 379.106 320.569 377.668C322.009 376.231 323.962 375.424 325.998 375.424L329.602 372.695L336.325 375.424L338.047 375.424L338.047 383.337Z" fill="#2F2E41"/>
<path d="M365.682 376.657L359.267 376.657L356.216 351.959L365.684 351.96L365.682 376.657Z" fill="#FFB6B6"/>
<path d="M365.908 383.337L346.181 383.336V383.087C346.181 381.055 346.99 379.106 348.43 377.668C349.87 376.231 351.823 375.424 353.859 375.424L357.463 372.695L364.186 375.424L365.908 375.424L365.908 383.337Z" fill="#2F2E41"/>
<path d="M318.817 243.905C318.817 243.905 311.514 254.066 316.785 271.62C322.056 289.174 319.097 304.868 320.577 308.015C322.056 311.162 325.035 314.151 322.574 316.537C320.112 318.922 318.817 320.863 320.76 321.509C322.704 322.156 329.183 367.425 329.183 367.425L340.198 368.072C340.198 368.072 344.189 347.043 339.926 330.073C339.926 330.073 340.861 317.753 338.91 314.134C336.959 310.515 337.341 313.779 337.474 309.237C337.547 305.952 338.027 302.689 338.902 299.521C339.55 296.935 339.926 270.863 339.926 270.863L354.245 303.068C354.675 304.26 354.837 305.532 354.718 306.793C354.453 308.575 354.45 311.238 354.776 312.17C355.101 313.102 355.463 313.298 355.282 315.14C355.101 316.982 355.101 365.836 355.101 365.836H367.411L373.243 316.982C372.194 315.822 371.32 314.515 370.651 313.102C369.355 310.515 369.305 310.373 369.978 308.504C370.651 306.635 370.651 302.994 370.651 301.905C370.651 300.815 371.324 251.344 362.888 244.068C354.453 236.791 318.817 243.905 318.817 243.905Z" fill="#2F2E41"/>
<path d="M356.621 166.246L344.323 163.065L338.582 155.162L324.949 156.835L322.047 167.614L312.341 173.238C312.341 173.238 317.706 229.87 316.43 232.98C315.154 236.089 310.578 235.833 314.486 239.841C318.393 243.85 318.911 242.235 318.004 246.599C317.097 250.964 310.488 255.582 318.004 255.536C325.52 255.49 370.875 254.844 369.58 249.67C368.284 244.497 368.304 245.81 366.35 242.567C364.396 239.323 363.081 241.136 363.739 236.349C364.396 231.563 363.748 228.329 363.748 225.742C363.748 223.155 361.577 199.649 361.577 199.649L356.621 166.246Z" fill="#3F3D56"/>
<path d="M318.25 172.151C318.25 172.151 306.083 170.773 303.491 176.593C300.899 182.413 294.368 194.533 294.368 194.533C294.368 194.533 289.275 189.215 288.782 186.805C288.364 184.759 288.134 188.177 284.713 184.477C283.181 182.819 284.476 182.819 282.533 182.173L278.645 180.879L272.166 186.699C272.166 186.699 272.039 193.732 275.405 193.813C278.772 193.895 274.109 192.52 278.645 197.047C280.987 199.384 278.839 198.997 282.742 201.376C286.645 203.754 286.204 203.744 287.396 205.043C288.588 206.341 294.986 207.286 294.986 207.286L323.638 191.462L318.25 172.151Z" fill="#3F3D56"/>
<path d="M350.227 168.692C350.227 168.692 355.444 161.062 364.362 170.975C373.28 180.888 379.948 226.142 379.53 227.766C379.112 229.391 376.76 228.459 379.556 231.188C382.351 233.918 384.295 231.977 382.351 233.918C380.408 235.858 376.351 237.683 379.675 238.387C382.999 239.091 370.068 242.966 370.068 242.966C370.068 242.966 368.184 242.278 368.104 237.747C368.059 235.202 369.355 233.909 367.411 233.262C365.468 232.615 367.858 228.297 367.653 227.55C367.449 226.804 355.138 193.822 355.138 193.822L350.227 168.692Z" fill="#3F3D56"/>
<path d="M329.719 153.81C337.97 153.81 344.658 147.134 344.658 138.9C344.658 130.665 337.97 123.989 329.719 123.989C321.469 123.989 314.781 130.665 314.781 138.9C314.781 147.134 321.469 153.81 329.719 153.81Z" fill="#FFB6B6"/>
<path d="M339.55 150.484C336.019 147.729 340.846 135.61 335.015 138.197C335.015 138.197 327.888 133.67 326.456 136.645C324.798 140.089 318.901 138.527 315.279 137.311C315.564 136.65 315.766 135.958 315.881 135.248C315.213 135.774 314.504 136.247 313.763 136.664C313.265 136.399 312.825 136.038 312.467 135.604C312.113 135.2 311.892 134.698 311.833 134.165C311.774 133.632 311.88 133.093 312.136 132.622C312.739 131.697 313.983 131.413 314.715 130.592C314.8 130.476 314.855 130.342 314.876 130.2C314.897 130.059 314.884 129.914 314.837 129.779C314.749 129.449 314.736 129.103 314.798 128.767C314.86 128.431 314.995 128.113 315.195 127.835C315.394 127.557 315.652 127.326 315.951 127.159C316.249 126.992 316.581 126.893 316.923 126.869C317.06 126.873 317.197 126.843 317.32 126.783C317.935 126.407 318.502 125.96 319.011 125.45C318.159 125.491 317.306 125.468 316.458 125.379C316.283 125.36 316.108 125.34 315.933 125.315C316.257 124.556 316.742 123.876 317.353 123.321C317.965 122.766 318.69 122.35 319.477 122.1C321.141 121.599 322.872 121.356 324.609 121.383C325.613 121.35 326.618 121.318 327.615 121.286C329.732 121.135 331.858 121.209 333.959 121.505C336.203 121.914 338.329 122.812 340.184 124.136C342.04 125.46 343.581 127.176 344.695 129.162C346.891 133.14 349.269 145.957 339.55 150.484Z" fill="#2F2E41"/>
<path d="M301.43 220.693L224.424 247.867C222.52 248.537 220.428 248.425 218.606 247.557C216.785 246.688 215.383 245.134 214.707 243.236L201.479 205.891C200.808 203.991 200.92 201.902 201.79 200.084C202.66 198.266 204.217 196.867 206.119 196.193L283.126 169.018C285.03 168.349 287.122 168.46 288.943 169.329C290.765 170.197 292.167 171.751 292.842 173.65L306.071 210.994C306.742 212.895 306.63 214.983 305.76 216.801C304.89 218.619 303.333 220.019 301.43 220.693Z" fill="#4F0573"/>
<path d="M219.618 204.864C214.514 208.216 207.972 205.693 205.684 202.018L206.049 201.811C210.394 199.108 216.848 200.614 219.618 204.864Z" fill="white"/>
<path d="M283.583 214.375C283.052 214.595 282.481 214.704 281.905 214.693C281.33 214.683 280.763 214.554 280.239 214.315C278.048 213.228 277.02 210.005 276.193 207.416C275.953 206.663 275.726 205.951 275.495 205.37L275.491 205.361C275.089 204.207 275.159 202.942 275.686 201.839C276.213 200.737 277.155 199.886 278.307 199.473L288.665 195.818C289.196 195.598 289.766 195.489 290.341 195.5C290.916 195.51 291.482 195.639 292.005 195.878C294.196 196.963 295.225 200.184 296.052 202.773C296.293 203.527 296.521 204.24 296.753 204.823C297.158 205.978 297.089 207.245 296.562 208.35C296.035 209.454 295.092 210.306 293.939 210.72L283.583 214.375Z" fill="white"/>
<path d="M220.112 224.659C219.928 224.732 219.727 224.753 219.531 224.721C219.335 224.688 219.151 224.603 219 224.474C218.823 224.32 218.689 224.123 218.611 223.902C218.532 223.681 218.512 223.443 218.552 223.212C218.59 223.013 218.682 222.829 218.818 222.679C218.954 222.529 219.129 222.419 219.323 222.363L223.266 220.971C223.453 220.894 223.658 220.87 223.858 220.901C224.058 220.933 224.245 221.018 224.399 221.149C224.576 221.304 224.71 221.501 224.788 221.722C224.867 221.943 224.887 222.181 224.846 222.412C224.808 222.61 224.716 222.794 224.58 222.944C224.444 223.094 224.269 223.203 224.075 223.26L220.133 224.651L220.112 224.659Z" fill="white"/>
<path d="M218.019 233.587C217.673 233.651 217.316 233.62 216.986 233.497C216.656 233.374 216.366 233.163 216.147 232.888C215.892 232.56 215.726 232.171 215.665 231.76C215.604 231.349 215.65 230.929 215.798 230.541C215.931 230.208 216.154 229.918 216.442 229.703C216.729 229.489 217.071 229.358 217.429 229.325L232.113 224.407C232.464 224.336 232.829 224.363 233.166 224.485C233.504 224.608 233.8 224.821 234.024 225.101C234.279 225.43 234.445 225.818 234.506 226.23C234.567 226.641 234.52 227.061 234.371 227.449C234.238 227.781 234.015 228.07 233.727 228.284C233.439 228.498 233.098 228.629 232.741 228.662L218.057 233.581L218.019 233.587Z" fill="white"/>
<path d="M295.723 181.779L204.62 213.928L204.774 214.363L295.876 182.213L295.723 181.779Z" fill="white"/>
<path d="M281.237 206.747C282.668 206.747 283.828 205.589 283.828 204.16C283.828 202.732 282.668 201.574 281.237 201.574C279.805 201.574 278.645 202.732 278.645 204.16C278.645 205.589 279.805 206.747 281.237 206.747Z" fill="#4F0573"/>
<path d="M289.66 207.394C290.733 207.394 291.604 206.525 291.604 205.454C291.604 204.382 290.733 203.514 289.66 203.514C288.586 203.514 287.716 204.382 287.716 205.454C287.716 206.525 288.586 207.394 289.66 207.394Z" fill="#4F0573"/>
<path fill-rule="evenodd" clip-rule="evenodd" d="M150.731 90.9682C150.731 96.976 145.923 100.429 138.925 100.429C135.769 100.419 132.648 99.7703 129.751 98.5217V90.5349C132.576 92.0741 136.139 93.2187 138.925 93.2187C140.811 93.2187 142.159 92.7143 142.159 91.1687C142.159 87.1785 129.381 88.653 129.381 79.3923C129.381 73.4491 133.917 69.8922 140.746 69.8922C143.6 69.8654 146.431 70.3902 149.085 71.4378V79.3211C146.51 77.9695 143.655 77.2345 140.746 77.1741C138.964 77.1741 137.889 77.6785 137.889 78.9848C137.889 82.7487 150.698 80.9702 150.731 90.9682Z" fill="#635BFF"/>
<path fill-rule="evenodd" clip-rule="evenodd" d="M160.586 70.4613H166.974V77.6139H160.586V89.5261C160.586 94.4928 165.899 92.9471 166.974 92.5139V99.3236C165.86 99.9315 163.845 100.429 161.084 100.429C159.937 100.466 158.795 100.268 157.726 99.8482C156.658 99.4286 155.687 98.7961 154.872 97.9893C154.057 97.1825 153.415 96.2184 152.986 95.1558C152.557 94.0931 152.35 92.9543 152.376 91.809L152.409 64.9256L160.618 63.1795L160.586 70.4613Z" fill="#635BFF"/>
<path fill-rule="evenodd" clip-rule="evenodd" d="M184.423 70.4613V78.183C183.38 77.8143 180.017 77.3422 178.034 79.9291V99.828H169.631V70.4613H176.894L177.432 72.9447C179.414 69.3232 183.347 70.0604 184.423 70.4613Z" fill="#635BFF"/>
<path fill-rule="evenodd" clip-rule="evenodd" d="M186.477 61.0647L194.913 59.2863V66.0961L186.477 67.9133V61.0647Z" fill="#635BFF"/>
<path d="M194.913 70.4614H186.477V99.828H194.913V70.4614Z" fill="#635BFF"/>
<path fill-rule="evenodd" clip-rule="evenodd" d="M212.465 69.8923C210.013 69.8847 207.652 70.823 205.876 72.5114L205.442 70.429H198.042V109.561L206.446 107.782L206.479 98.2824C208.162 99.6469 210.264 100.393 212.433 100.397C218.452 100.397 223.934 95.5663 223.934 84.9281C223.901 75.1952 218.349 69.8923 212.465 69.8923ZM210.45 93.0183C209.713 93.0618 208.975 92.943 208.289 92.6704C207.602 92.3977 206.984 91.9777 206.478 91.4403L206.446 78.9849C206.948 78.4302 207.569 77.9947 208.262 77.7105C208.955 77.4262 209.702 77.3004 210.45 77.3422C213.509 77.3422 215.627 80.7633 215.627 85.1609C215.627 89.6619 213.541 93.0183 210.45 93.0183Z" fill="#635BFF"/>
<path fill-rule="evenodd" clip-rule="evenodd" d="M250.428 85.2643C250.428 76.6697 246.261 69.8923 238.292 69.8923C230.29 69.8923 225.443 76.6697 225.443 85.1932C225.443 95.2947 231.165 100.397 239.367 100.397C242.608 100.486 245.816 99.7355 248.678 98.2178V91.505C246.12 92.7673 243.296 93.3993 240.443 93.3481C237.184 93.3481 234.288 92.21 233.918 88.2521H250.363C250.363 87.8123 250.428 86.0663 250.428 85.2643ZM233.821 82.0761C233.821 78.2799 236.141 76.702 238.259 76.702C240.307 76.702 242.497 78.2799 242.497 82.0761H233.821Z" fill="#635BFF"/>
<path d="M144.111 367.554C143.738 367.572 143.369 367.474 143.054 367.275C142.739 367.076 142.493 366.785 142.349 366.441C142.205 366.098 142.17 365.718 142.25 365.355C142.329 364.991 142.519 364.66 142.792 364.408L142.917 363.913C142.901 363.873 142.884 363.834 142.867 363.794C142.492 362.909 141.863 362.155 141.06 361.626C140.256 361.097 139.314 360.816 138.351 360.82C137.388 360.823 136.448 361.111 135.649 361.646C134.849 362.181 134.226 362.94 133.857 363.828C132.383 367.37 130.507 370.919 130.045 374.665C129.841 376.321 129.927 377.999 130.299 379.626C126.837 372.089 125.04 363.898 125.028 355.608C125.027 353.528 125.143 351.449 125.375 349.381C125.567 347.686 125.832 346.004 126.172 344.333C128.028 335.267 132.011 326.771 137.795 319.54C140.595 318.015 142.859 315.671 144.282 312.822C144.798 311.799 145.162 310.706 145.364 309.577C145.048 309.619 144.173 304.818 144.411 304.524C143.971 303.857 143.184 303.526 142.703 302.875C140.312 299.641 137.019 300.205 135.3 304.601C131.627 306.452 131.591 309.52 133.845 312.471C135.279 314.349 135.476 316.889 136.734 318.899C136.604 319.065 136.47 319.225 136.34 319.39C133.974 322.427 131.912 325.687 130.184 329.125C130.604 325.274 130.102 321.378 128.72 317.757C127.318 314.383 124.692 311.542 122.379 308.625C119.601 305.121 113.904 306.65 113.414 311.092C113.41 311.135 113.405 311.178 113.4 311.221C113.744 311.414 114.08 311.619 114.409 311.837C114.823 312.112 115.143 312.506 115.328 312.966C115.513 313.427 115.555 313.933 115.448 314.417C115.34 314.901 115.088 315.342 114.726 315.681C114.363 316.021 113.906 316.243 113.414 316.318L113.364 316.326C113.487 317.562 113.703 318.786 114.011 319.99C111.044 331.443 117.45 335.614 126.597 335.802C126.799 335.905 126.996 336.008 127.198 336.106C125.461 341.019 124.371 346.136 123.957 351.329C123.722 354.393 123.736 357.471 123.998 360.532L123.982 360.424C123.32 357.019 121.5 353.948 118.831 351.727C114.867 348.477 109.266 347.28 104.99 344.668C104.535 344.376 104.007 344.221 103.467 344.22C102.927 344.218 102.397 344.371 101.941 344.66C101.485 344.949 101.122 345.362 100.893 345.851C100.665 346.339 100.581 346.883 100.652 347.417C100.658 347.455 100.664 347.493 100.67 347.531C101.307 347.791 101.928 348.089 102.528 348.425C102.872 348.619 103.208 348.824 103.537 349.041C103.951 349.317 104.271 349.711 104.456 350.171C104.641 350.632 104.683 351.137 104.575 351.622C104.468 352.106 104.216 352.547 103.854 352.886C103.491 353.225 103.034 353.447 102.542 353.523L102.492 353.531C102.456 353.536 102.425 353.541 102.389 353.546C103.478 356.142 105.007 358.532 106.908 360.61C108.764 370.608 116.732 371.557 125.256 368.645H125.261C126.196 372.701 127.552 376.65 129.305 380.426H143.749C143.801 380.266 143.847 380.101 143.894 379.941C142.557 380.025 141.215 379.945 139.897 379.703C140.969 378.391 142.04 377.068 143.112 375.755C143.136 375.731 143.158 375.705 143.179 375.678C143.723 375.006 144.272 374.339 144.815 373.668L144.816 373.667C144.845 371.608 144.607 369.553 144.111 367.554Z" fill="#F2F2F2"/>
</svg>
